SplineFontDB: 3.2
FontName: FondationMono
FullName: Fondation Mono
FamilyName: Fondation Mono
Weight: Regular

StartChar: exclam
Encoding: 33 33 1
Width: 502
GlyphClass: 1
Flags: W
HStem: 0 100<202 302> 980 20G<202 302>
VStem: 202 100<0 100 300 1000>
LayerCount: 2
Fore
SplineSet
202 0 m 1
 202 100 l 1
 302 100 l 1
 302 0 l 1
 202 0 l 1
202 300 m 1
 202 1000 l 1
 302 1000 l 1
 302 300 l 1
 202 300 l 1
EndSplineSet
EndChar

StartChar: quotedbl
Encoding: 34 34 2
Width: 500
GlyphClass: 1
Flags: W
HStem: 700 300<100 200 300 400>
VStem: 100 100<700 1000> 300 100<700 1000>
LayerCount: 2
Fore
SplineSet
300 700 m 1
 300 1000 l 1
 400 1000 l 1
 400 700 l 1
 300 700 l 1
100 700 m 1
 100 1000 l 1
 200 1000 l 1
 200 700 l 1
 100 700 l 1
EndSplineSet
EndChar

StartChar: numbersign
Encoding: 35 35 3
Width: 455
GlyphClass: 1
Flags: W
HStem: 0 21G<87.5 177.9 257.5 347.9> 200 100<27.5 91.5 183.5 261.5 353.5 427.5> 700 100<27.5 101.5 193.5 271.5 363.5 427.5> 980 20G<107.1 197.5 277.1 367.5>
VStem: 91.5 90<0 200 300 476> 107.5 90<800 1000> 261.5 90<0 200 300 476> 263.5 90
LayerCount: 2
Fore
SplineSet
271.5 700 m 1xf1
 191.5 700 l 1
 183.5 300 l 1
 263.5 300 l 1
 271.5 700 l 1xf1
27.5 700 m 1
 27.5 800 l 1
 103.5 800 l 1
 107.5 1000 l 1
 197.5 1000 l 1
 193.5 800 l 1
 273.5 800 l 1
 277.5 1000 l 1
 367.5 1000 l 1xf480
 363.5 800 l 1
 427.5 800 l 1
 427.5 700 l 1
 361.5 700 l 1
 353.5 300 l 1xf1
 427.5 300 l 1
 427.5 200 l 1
 351.5 200 l 1
 347.5 0 l 1
 257.5 0 l 1
 261.5 200 l 1
 181.5 200 l 1
 177.5 0 l 1
 87.5 0 l 1
 91.5 200 l 1xfa
 27.5 200 l 1
 27.5 300 l 1
 93.5 300 l 1
 101.5 700 l 1
 27.5 700 l 1
EndSplineSet
EndChar

StartChar: dollar
Encoding: 36 36 4
Width: 500
GlyphClass: 1
Flags: W
HStem: 0 100<50 205 295 350> 500 100<150 205 295 350> 900 100<150 205 295 450>
VStem: 50 100<600 900> 205 90<-100 0 100 500 600 900 1000 1100> 350 100<100 500>
CounterMasks: 1 1c
LayerCount: 2
Fore
SplineSet
205 900 m 1
 150 900 l 1
 150 600 l 1
 205 600 l 1
 205 900 l 1
295 100 m 1
 350 100 l 1
 350 500 l 1
 295 500 l 1
 295 100 l 1
50 0 m 1
 50 100 l 1
 205 100 l 1
 205 500 l 1
 150 500 l 2
 50 500 50 600 50 600 c 1
 50 900 l 2
 50 1000 150 1000 150 1000 c 1
 205 1000 l 1
 205 1100 l 1
 295 1100 l 1
 295 1000 l 1
 450 1000 l 1
 450 900 l 1
 295 900 l 1
 295 600 l 1
 350 600 l 1
 350 600 450 600 450 500 c 2
 450 100 l 1
 450 100 450 0 350 0 c 2
 295 0 l 1
 295 -100 l 1
 205 -100 l 1
 205 0 l 1
 50 0 l 1
EndSplineSet
EndChar

StartChar: percent
Encoding: 37 37 5
Width: 500
GlyphClass: 1
Flags: W
HStem: 0 80<290 370> 160 80<290 370> 760 80<130 210> 920 80<130 210>
VStem: 50 80<840 920> 210 80<80 160 840 920> 370 80<80 160>
CounterMasks: 1 0e
LayerCount: 2
Fore
SplineSet
290 80 m 1
 370 80 l 1
 370 160 l 1
 290 160 l 1
 290 80 l 1
210 160 m 2
 210 240 290 240 290 240 c 1
 370 240 l 2
 450 240 450 160 450 160 c 1
 450 80 l 2
 450 0 370 0 370 0 c 1
 290 0 l 2
 210 0 210 80 210 80 c 1
 210 160 l 2
130 840 m 1
 210 840 l 1
 210 920 l 1
 130 920 l 1
 130 840 l 1
50 920 m 2
 50 1000 130 1000 130 1000 c 1
 210 1000 l 2
 290 1000 290 920 290 920 c 1
 290 840 l 2
 290 760 210 760 210 760 c 1
 130 760 l 2
 50 760 50 840 50 840 c 1
 50 920 l 2
50 100 m 1
 350 900 l 1
 450 900 l 1
 150 100 l 1
 50 100 l 1
EndSplineSet
EndChar

StartChar: ampersand
Encoding: 38 38 6
Width: 500
GlyphClass: 1
Flags: W
HStem: 0 21G<100 150 318.229 425> 900 100<150 350>
VStem: 50 100<100 433.537 800 900> 350 100<242.595 500 800 900>
LayerCount: 2
Fore
SplineSet
350 500 m 1
 450 500 l 1
 450 300 l 2
 450 212.514648438 424.487304688 150.541015625 388.342773438 106.640625 c 1
 425 0 l 1
 325 0 l 1
 310.451171875 42.9765625 l 1
 232.134765625 0 150 0 150 0 c 1
 50 0 50 100 50 100 c 1
 50 400 l 2
 50 455.629882812 96.4208984375 511.259765625 137.614257812 549.673828125 c 1
 50 800 l 1
 50 900 l 1
 50 900 50 1000 150 1000 c 2
 350 1000 l 1
 350 1000 450 1000 450 900 c 2
 450 800 l 1
 350 800 l 1
 350 900 l 1
 150 900 l 1
 150 800 l 1
 342.80078125 239.124023438 l 1
 347.403320312 257.016601562 350 277.209960938 350 300 c 2
 350 500 l 1
277.137695312 141.385742188 m 2
 177.513671875 435.673828125 l 1
 161.912109375 413.072265625 150 384.514648438 150 350 c 2
 150 100 l 1
 150 100 285.0546875 118 277.137695312 141.385742188 c 2
EndSplineSet
EndChar

StartChar: quotesingle
Encoding: 39 39 7
Width: 500
GlyphClass: 1
Flags: W
HStem: 700 300<200 300>
VStem: 200 100<700 1000>
LayerCount: 2
Fore
SplineSet
200 700 m 1
 200 1000 l 1
 300 1000 l 1
 300 700 l 1
 200 700 l 1
EndSplineSet
EndChar

StartChar: parenleft
Encoding: 40 40 8
Width: 500
GlyphClass: 1
Flags: W
HStem: -100 100<375 425> 1000 100<375 425>
VStem: 75 100<200 800>
LayerCount: 2
Fore
SplineSet
75 800 m 2
 75 1100.28125 375 1100 375 1100 c 1
 425 1100 l 1
 425 1000 l 1
 375 1000 l 2
 175 1000 175 800 175 800 c 1
 175 200 l 2
 175 0 375 0 375 0 c 1
 425 0 l 1
 425 -100 l 1
 375 -100 l 2
 75 -100 75 200 75 200 c 1
 75 800 l 2
EndSplineSet
EndChar

StartChar: parenright
Encoding: 41 41 9
Width: 500
GlyphClass: 1
Flags: W
HStem: -100 100<75 125> 1000 100<75 125>
VStem: 325 100<200 800>
LayerCount: 2
Fore
SplineSet
425 800 m 2
 425 200 l 1
 425 200 425 -100 125 -100 c 2
 75 -100 l 1
 75 0 l 1
 125 0 l 1
 125 0 325 0 325 200 c 2
 325 800 l 1
 325 800 325 1000 125 1000 c 2
 75 1000 l 1
 75 1100 l 1
 125 1100 l 1
 125 1100 425 1100.28125 425 800 c 2
EndSplineSet
EndChar

StartChar: asterisk
Encoding: 42 42 10
Width: 500
GlyphClass: 1
Flags: W
HStem: 623.224 353.553
VStem: 73.2197 353.553
LayerCount: 2
Fore
SplineSet
249.99609375 870.7109375 m 1
 356.0625 976.776367188 l 1
 426.772460938 906.06640625 l 1
 320.70703125 800 l 1
 426.772460938 693.93359375 l 1
 356.0625 623.223632812 l 1
 249.99609375 729.2890625 l 1
 143.9296875 623.223632812 l 1
 73.2197265625 693.93359375 l 1
 179.28515625 800 l 1
 73.2197265625 906.06640625 l 1
 143.9296875 976.776367188 l 1
 249.99609375 870.7109375 l 1
EndSplineSet
EndChar

StartChar: plus
Encoding: 43 43 11
Width: 500
GlyphClass: 1
Flags: W
HStem: 500 100<60 200 300 440>
VStem: 200 100<360 500 600 740>
LayerCount: 2
Fore
SplineSet
200 740 m 5
 300 740 l 1
 300 600 l 1
 440 600 l 1
 440 500 l 1
 300 500 l 1
 300 360 l 1
 200 360 l 1
 200 500 l 1
 60 500 l 1
 60 600 l 1
 200 600 l 5
 200 740 l 5
EndSplineSet
EndChar

StartChar: comma
Encoding: 44 44 12
Width: 500
GlyphClass: 1
Flags: W
HStem: -100 300
VStem: 150 200
LayerCount: 2
Fore
SplineSet
150 -100 m 1
 150 -80 l 1
 250 200 l 1
 350 200 l 1
 350 180 l 1
 250 -100 l 1
 150 -100 l 1
EndSplineSet
EndChar

StartChar: hyphen
Encoding: 45 45 13
Width: 500
GlyphClass: 1
Flags: W
HStem: 500 100<60 440>
VStem: 60 380<500 600>
LayerCount: 2
Fore
SplineSet
60 500 m 5
 60 600 l 5
 440 600 l 5
 440 500 l 5
 60 500 l 5
EndSplineSet
EndChar

StartChar: period
Encoding: 46 46 14
Width: 500
GlyphClass: 1
Flags: W
HStem: 0 150<175 325>
VStem: 175 150<0 150>
LayerCount: 2
Fore
SplineSet
175 0 m 1
 175 150 l 1
 325 150 l 1
 325 0 l 1
 175 0 l 1
EndSplineSet
EndChar

StartChar: slash
Encoding: 47 47 15
Width: 500
GlyphClass: 1
Flags: W
HStem: 0 21G<50 156> 980 20G<344 450>
LayerCount: 2
Fore
SplineSet
50 0 m 1
 350 1000 l 1
 450 1000 l 1
 150 0 l 1
 50 0 l 1
EndSplineSet
EndChar

StartChar: zero
Encoding: 48 48 16
Width: 500
GlyphClass: 1
Flags: W
HStem: 0 100<150 350> 900 100<150 350>
VStem: 50 100<100 200 400 900> 350 100<100 600 800 900>
LayerCount: 2
Fore
SplineSet
150 0 m 1
 150 0 50 0 50 100 c 2
 50 900 l 1
 50 900 50 1000 150 1000 c 2
 350 1000 l 1
 350 1000 450 1000 450 900 c 2
 450 100 l 1
 450 100 450 0 350 0 c 2
 150 0 l 1
150 200 m 1
 150 100 l 1
 350 100 l 1
 350 600 l 1
 150 200 l 1
350 800 m 1
 350 900 l 1
 150 900 l 1
 150 400 l 1
 350 800 l 1
EndSplineSet
EndChar

StartChar: one
Encoding: 49 49 17
Width: 500
GlyphClass: 1
Flags: W
HStem: 0 100<50 200 300 450> 900 100<50 200>
VStem: 200 100<100 900>
LayerCount: 2
Fore
SplineSet
50 0 m 1
 50 100 l 1
 200 100 l 1
 200 900 l 1
 50 900 l 1
 50 1000 l 1
 300 1000 l 1
 300 100 l 1
 450 100 l 1
 450 0 l 1
 50 0 l 1
EndSplineSet
EndChar

StartChar: two
Encoding: 50 50 18
Width: 500
GlyphClass: 1
Flags: W
HStem: 0 100<150 450> 900 100<50 350>
VStem: 350 100<711.355 900>
LayerCount: 2
Fore
SplineSet
50 900 m 1
 50 1000 l 1
 350 1000 l 2
 450 1000 450 900 450 900 c 1
 450 790 l 2
 450 689.995117188 150 100 150 100 c 1
 450 100 l 1
 450 0 l 1
 50 0 l 1
 50 110 l 1
 50 110 350 700 350 800 c 2
 350 900 l 1
 50 900 l 1
EndSplineSet
EndChar

StartChar: three
Encoding: 51 51 19
Width: 500
GlyphClass: 1
Flags: W
HStem: 0 100<50 350> 500 100<150 319.67> 900 100<50 350>
VStem: 350 100<100 400 700 900>
LayerCount: 2
Fore
SplineSet
50 900 m 1
 50 1000 l 1
 350 1000 l 2
 450 1000 450 900 450 900 c 1
 450 700 l 2
 450 625.9921875 422.614257812 579.370117188 388.110351562 550 c 1
 422.614257812 520.629882812 450 474.0078125 450 400 c 2
 450 100 l 1
 450 100 450 0 350 0 c 2
 50 0 l 1
 50 100 l 1
 350 100 l 1
 350 400 l 1
 350 400 350 500 250 500 c 2
 150 500 l 1
 150 600 l 1
 250 600 l 2
 350 600 350 700 350 700 c 1
 350 900 l 1
 50 900 l 1
EndSplineSet
EndChar

StartChar: four
Encoding: 52 52 20
Width: 500
GlyphClass: 1
Flags: W
HStem: 0 21G<350 450> 500 100<150 350> 980 20G<192.5 300 350 450>
VStem: 350 100<0 500 600 1000>
LayerCount: 2
Fore
SplineSet
50 500 m 1
 50 600 l 1
 200 1000 l 1
 300 1000 l 1
 150 600 l 1
 350 600 l 1
 350 1000 l 1
 450 1000 l 1
 450 0 l 1
 350 0 l 1
 350 500 l 1
 50 500 l 1
EndSplineSet
EndChar

StartChar: five
Encoding: 53 53 21
Width: 500
GlyphClass: 1
Flags: W
HStem: 0 100<50 250> 500 100<150 250> 900 100<150 450>
VStem: 50 100<600 900> 350 100<200 400>
LayerCount: 2
Fore
SplineSet
50 0 m 1
 50 100 l 1
 250 100 l 2
 350 100 350 200 350 200 c 1
 350 400 l 2
 350 500.404296875 250 500 250 500 c 1
 50 500 l 1
 50 1000 l 1
 450 1000 l 1
 450 900 l 1
 150 900 l 1
 150 600 l 1
 250 600 l 2
 450 600 450 400 450 400 c 1
 450 200 l 2
 450 0 250 0 250 0 c 1
 50 0 l 1
EndSplineSet
EndChar

StartChar: six
Encoding: 54 54 22
Width: 500
GlyphClass: 1
Flags: W
HStem: 0 100<150 350> 500 100<150 350> 900 100<150 450>
VStem: 50 100<100 500 600 900> 350 100<100 500>
LayerCount: 2
Fore
SplineSet
350 500 m 1
 150 500 l 1
 150 100 l 1
 350 100 l 1
 350 500 l 1
450 1000 m 1
 450 900 l 1
 150 900 l 1
 150 600 l 1
 350 600 l 2
 450 600 450 500 450 500 c 1
 450 100 l 2
 450 0 350 0 350 0 c 1
 150 0 l 2
 50 0 50 100 50 100 c 1
 50 900 l 2
 50 1000 150 1000 150 1000 c 1
 450 1000 l 1
EndSplineSet
EndChar

StartChar: seven
Encoding: 55 55 23
Width: 500
GlyphClass: 1
Flags: W
HStem: 0 21G<50 156.742> 900 100<50 350>
LayerCount: 2
Fore
SplineSet
50 900 m 1
 50 1000 l 1
 450 1000 l 1
 450 890 l 1
 150 0 l 1
 50 0 l 1
 50 10 l 1
 350 900 l 1
 50 900 l 1
EndSplineSet
EndChar

StartChar: eight
Encoding: 56 56 24
Width: 500
GlyphClass: 1
Flags: W
HStem: 0 100<150 350> 900 100<150 350>
VStem: 50 100<100 390.224 659.776 900> 350 100<100 390.224 659.776 900>
LayerCount: 2
Fore
SplineSet
170.072265625 525 m 1
 106.271484375 578.5546875 50 628.345703125 50 650 c 2
 50 900 l 2
 50 1000 150 1000 150 1000 c 1
 350 1000 l 1
 350 1000 450 1000 450 900 c 2
 450 650 l 2
 450 628.345703125 393.728515625 578.5546875 329.927734375 525 c 1
 393.728515625 471.4453125 450 421.654296875 450 400 c 2
 450 100 l 2
 450 0 350 0 350 0 c 1
 150 0 l 1
 150 0 50 0 50 100 c 2
 50 400 l 2
 50 421.654296875 106.271484375 471.4453125 170.072265625 525 c 1
250 458.044921875 m 1
 194.921875 411.157226562 150 369.348632812 150 350 c 2
 150 100 l 1
 350 100 l 1
 350 350 l 2
 350 369.348632812 305.078125 411.157226562 250 458.044921875 c 1
250 591.955078125 m 1
 305.078125 638.842773438 350 680.651367188 350 700 c 2
 350 900 l 1
 150 900 l 1
 150 700 l 2
 150 680.651367188 194.921875 638.842773438 250 591.955078125 c 1
EndSplineSet
EndChar

StartChar: nine
Encoding: 57 57 25
Width: 500
GlyphClass: 1
Flags: W
HStem: 0 100<50 350> 500 100<150 350> 900 100<150 350>
VStem: 50 100<600 900> 350 100<100 500 600 900>
LayerCount: 2
Fore
SplineSet
150 600 m 1
 350 600 l 1
 350 900 l 1
 150 900 l 1
 150 600 l 1
50 0 m 1
 50 100 l 1
 350 100 l 1
 350 500 l 1
 150 500 l 2
 50 500 50 600 50 600 c 1
 50 900 l 2
 50 1000 150 1000 150 1000 c 1
 350 1000 l 2
 450 1000 450 900 450 900 c 1
 450 100 l 2
 450 0 350 0 350 0 c 1
 50 0 l 1
EndSplineSet
EndChar

StartChar: colon
Encoding: 58 58 26
Width: 500
GlyphClass: 1
Flags: W
HStem: 100 100<200 300> 600 100<200 300>
VStem: 200 100<100 200 600 700>
LayerCount: 2
Fore
SplineSet
200 600 m 1
 200 700 l 1
 300 700 l 1
 300 600 l 1
 200 600 l 1
200 100 m 1
 200 200 l 1
 300 200 l 1
 300 100 l 1
 200 100 l 1
EndSplineSet
EndChar

StartChar: semicolon
Encoding: 59 59 27
Width: 500
GlyphClass: 1
Flags: W
HStem: 600 100<200 300>
VStem: 200 100<600 700>
LayerCount: 2
Fore
SplineSet
200 600 m 1
 200 700 l 1
 300 700 l 1
 300 600 l 1
 200 600 l 1
100 -100 m 1
 100 -80 l 1
 200 200 l 1
 300 200 l 1
 300 180 l 1
 200 -100 l 1
 100 -100 l 1
EndSplineSet
EndChar

StartChar: less
Encoding: 60 60 28
Width: 500
GlyphClass: 1
Flags: W
LayerCount: 2
Fore
SplineSet
450 200 m 1
 50 450 l 1
 50 550 l 1
 450 800 l 1
 450 700 l 1
 150 500 l 1
 450 300 l 1
 450 200 l 1
EndSplineSet
EndChar

StartChar: equal
Encoding: 61 61 29
Width: 500
GlyphClass: 1
Flags: W
HStem: 300 100<60 440> 600 100<60 440>
VStem: 60 380<300 400 600 700>
LayerCount: 2
Fore
SplineSet
60 300 m 1
 60 400 l 1
 440 400 l 1
 440 300 l 1
 60 300 l 1
60 600 m 1
 60 700 l 1
 440 700 l 1
 440 600 l 1
 60 600 l 1
EndSplineSet
EndChar

StartChar: greater
Encoding: 62 62 30
Width: 500
GlyphClass: 1
Flags: W
LayerCount: 2
Fore
SplineSet
50 200 m 1
 50 300 l 1
 350 500 l 1
 50 700 l 1
 50 800 l 1
 450 550 l 1
 450 450 l 1
 50 200 l 1
EndSplineSet
EndChar

StartChar: question
Encoding: 63 63 31
Width: 500
GlyphClass: 1
Flags: W
HStem: 0 100<150 250> 500 100<250 350> 900 100<50 350>
VStem: 150 100<0 100 300 500> 350 100<600 900>
LayerCount: 2
Fore
SplineSet
150 0 m 1
 150 100 l 1
 250 100 l 1
 250 0 l 1
 150 0 l 1
50 900 m 1
 50 1000 l 1
 350 1000 l 2
 450 1000 450 900 450 900 c 1
 450 600 l 2
 450 500 350 500 350 500 c 1
 250 500 l 1
 250 300 l 1
 150 300 l 1
 150 600 l 1
 350 600 l 1
 350 900 l 1
 50 900 l 1
EndSplineSet
EndChar

StartChar: at
Encoding: 64 64 32
Width: 450
GlyphClass: 1
Flags: W
HStem: 100 80<125 425> 220 80<225 245 325 342.603> 600 80<207.397 245> 720 80<107.397 325>
VStem: 25 80<182.397 700> 125 80<302.397 580> 245 80<300 600> 345 80<320 717.603>
LayerCount: 2
Fore
SplineSet
205 300 m 1
 245 300 l 1
 245 600 l 1
 205 600 l 1
 205 300 l 1
325 680 m 1
 325 300 l 1
 345 300 l 1
 345 720 l 1
 105 720 l 1
 105 180 l 1
 425 180 l 1
 425 100 l 1
 125 100 l 1
 125 100 25 100 25 200 c 2
 25 700 l 1
 25 700 25 800 125 800 c 2
 325 800 l 1
 325 800 425 800 425 700 c 2
 425 320 l 1
 425 320 425 220 325 220 c 2
 225 220 l 1
 225 220 125 220 125 320 c 2
 125 580 l 1
 125 580 125 680 225 680 c 2
 325 680 l 1
EndSplineSet
EndChar

StartChar: A
Encoding: 65 65 33
Width: 500
GlyphClass: 1
Flags: W
HStem: 0 21G<50 150 350 450> 500 100<150 350> 900 100<150 350>
VStem: 50 100<0 500 600 900> 350 100<0 500 600 900>
LayerCount: 2
Fore
SplineSet
150 600 m 1
 350 600 l 1
 350 900 l 1
 150 900 l 1
 150 600 l 1
50 0 m 1
 50 900 l 2
 50 1000 150 1000 150 1000 c 1
 350 1000 l 2
 450 1000 450 900 450 900 c 1
 450 0 l 1
 350 0 l 1
 350 500 l 1
 150 500 l 1
 150 0 l 1
 50 0 l 1
EndSplineSet
EndChar

StartChar: B
Encoding: 66 66 34
Width: 500
GlyphClass: 1
Flags: W
HStem: 0 100<150 350> 500 100<150 250> 900 100<150 350>
VStem: 50 100<100 500 600 900> 350 100<100 469.649 630.351 900>
LayerCount: 2
Fore
SplineSet
150 500 m 1
 150 100 l 1
 350 100 l 1
 350 400 l 2
 350 500 250 500 250 500 c 1
 150 500 l 1
150 600 m 1
 250 600 l 1
 250 600 350 600 350 700 c 2
 350 900 l 1
 150 900 l 1
 150 600 l 1
50 0 m 1
 50 600 l 1
 50 1000 l 1
 350 1000 l 1
 350 1000 450 1000 450 900 c 2
 450 700 l 2
 450 625.9921875 422.614257812 579.370117188 388.110351562 550 c 1
 422.614257812 520.629882812 450 474.0078125 450 400 c 2
 450 100 l 2
 450 0 350 0 350 0 c 1
 150 0 l 1
 50 0 l 1
EndSplineSet
EndChar

StartChar: C
Encoding: 67 67 35
Width: 500
GlyphClass: 1
Flags: W
HStem: 0 100<150 450> 900 100<150 450>
VStem: 50 100<100 900>
LayerCount: 2
Fore
SplineSet
450 0 m 1
 150 0 l 2
 50 0 50 100 50 100 c 1
 50 900 l 2
 50 1000 150 1000 150 1000 c 1
 450 1000 l 1
 450 900 l 1
 150 900 l 1
 150 100 l 1
 450 100 l 1
 450 0 l 1
EndSplineSet
EndChar

StartChar: D
Encoding: 68 68 36
Width: 500
GlyphClass: 1
Flags: W
HStem: 0 100<150 250> 900 100<150 250>
VStem: 50 100<100 900> 350 100<200 800>
LayerCount: 2
Fore
SplineSet
150 100 m 1
 250 100 l 2
 350 100 350 200 350 200 c 1
 350 800 l 2
 350 900 250 900 250 900 c 1
 150 900 l 1
 150 100 l 1
50 0 m 1
 50 1000 l 1
 250 1000 l 2
 450 1000 450 800 450 800 c 1
 450 200 l 2
 450 0 250 0 250 0 c 1
 50 0 l 1
EndSplineSet
EndChar

StartChar: E
Encoding: 69 69 37
Width: 500
GlyphClass: 1
Flags: W
HStem: 0 100<150 450> 500 100<150 350> 900 100<150 450>
VStem: 50 100<100 500 600 900>
LayerCount: 2
Fore
SplineSet
50 0 m 1
 50 1000 l 1
 450 1000 l 1
 450 900 l 1
 150 900 l 1
 150 600 l 1
 350 600 l 1
 350 500 l 1
 150 500 l 1
 150 100 l 1
 450 100 l 1
 450 0 l 1
 50 0 l 1
EndSplineSet
EndChar

StartChar: F
Encoding: 70 70 38
Width: 500
GlyphClass: 1
Flags: W
HStem: 0 21G<50 150> 500 100<150 350> 900 100<150 450>
VStem: 50 100<0 500 600 900>
LayerCount: 2
Fore
SplineSet
50 0 m 1
 50 1000 l 1
 450 1000 l 1
 450 900 l 1
 150 900 l 1
 150 600 l 1
 350 600 l 1
 350 500 l 1
 150 500 l 1
 150 0 l 1
 50 0 l 1
EndSplineSet
EndChar

StartChar: G
Encoding: 71 71 39
Width: 500
GlyphClass: 1
Flags: W
HStem: 0 100<150 350> 500 100<250 350> 900 100<150 450>
VStem: 50 100<100 900> 250 200<500 600> 350 100<100 500>
LayerCount: 2
Fore
SplineSet
450 1000 m 1xf4
 450 900 l 1
 150 900 l 1
 150 100 l 1
 350 100 l 1
 350 500 l 1xf4
 250 500 l 1
 250 600 l 1
 450 600 l 1xf8
 450 100 l 1
 450 100 450 0 350 0 c 2
 150 0 l 1
 150 0 50 0 50 100 c 2
 50 900 l 1
 50 900 50 1000 150 1000 c 2
 450 1000 l 1xf4
EndSplineSet
EndChar

StartChar: H
Encoding: 72 72 40
Width: 500
GlyphClass: 1
Flags: W
HStem: 0 21G<50 150 350 450> 500 100<150 350> 980 20G<50 150 350 450>
VStem: 50 100<0 500 600 1000> 350 100<0 500 600 1000>
LayerCount: 2
Fore
SplineSet
50 0 m 1
 50 1000 l 1
 150 1000 l 1
 150 600 l 1
 350 600 l 1
 350 1000 l 1
 450 1000 l 1
 450 0 l 1
 350 0 l 1
 350 500 l 1
 150 500 l 1
 150 0 l 1
 50 0 l 1
EndSplineSet
EndChar

StartChar: I
Encoding: 73 73 41
Width: 500
GlyphClass: 1
Flags: W
HStem: 0 100<50 200 300 450> 900 100<50 200 300 450>
VStem: 200 100<100 900>
LayerCount: 2
Fore
SplineSet
450 100 m 1
 450 0 l 1
 50 0 l 1
 50 100 l 1
 200 100 l 1
 200 900 l 1
 50 900 l 1
 50 1000 l 1
 450 1000 l 1
 450 900 l 1
 300 900 l 1
 300 100 l 1
 450 100 l 1
EndSplineSet
EndChar

StartChar: J
Encoding: 74 74 42
Width: 500
GlyphClass: 1
Flags: W
HStem: 0 100<50 250> 900 100<50 350>
VStem: 350 100<200 900>
LayerCount: 2
Fore
SplineSet
50 900 m 1
 50 1000 l 1
 450 1000 l 1
 450 200 l 2
 450 0 250 0 250 0 c 1
 50 0 l 1
 50 100 l 1
 250 100 l 2
 350 100 350 200 350 200 c 1
 350 900 l 1
 50 900 l 1
EndSplineSet
EndChar

StartChar: K
Encoding: 75 75 43
Width: 500
GlyphClass: 1
Flags: W
HStem: 0 21G<50 150 350 450> 500 100<150 250> 980 20G<50 150 350 450>
VStem: 50 100<0 500 600 1000> 350 100<0 469.67 630.446 1000>
LayerCount: 2
Fore
SplineSet
350 0 m 1
 350 400 l 2
 350 500 250 500 250 500 c 1
 150 500 l 1
 150 0 l 1
 50 0 l 1
 50 1000 l 1
 150 1000 l 1
 150 600 l 1
 250 600 l 1
 250 600 350 600 350 700 c 2
 350 1000 l 1
 450 1000 l 1
 450 700 l 2
 450 626.110351562 422.701171875 579.518554688 388.275390625 550.140625 c 1
 422.701171875 520.778320312 450 474.125976562 450 400 c 2
 450 0 l 1
 350 0 l 1
EndSplineSet
EndChar

StartChar: L
Encoding: 76 76 44
Width: 500
GlyphClass: 1
Flags: W
HStem: 0 100<150 450> 980 20G<50 150>
VStem: 50 100<100 1000>
LayerCount: 2
Fore
SplineSet
50 0 m 1
 50 1000 l 1
 150 1000 l 1
 150 100 l 1
 450 100 l 1
 450 0 l 1
 50 0 l 1
EndSplineSet
EndChar

StartChar: M
Encoding: 77 77 45
Width: 500
GlyphClass: 1
Flags: W
HStem: 0 21G<50 150 350 450> 980 20G<50 154.444 345.556 450>
VStem: 50 100<0 600 962.2 1000> 200 100<300 350.4> 350 100<0 600 962.2 1000>
CounterMasks: 1 38
LayerCount: 2
Fore
SplineSet
50 0 m 1
 50 1000 l 1
 150 1000 l 1
 250 550 l 1
 350 1000 l 1
 450 1000 l 1
 450 0 l 1
 350 0 l 1
 350 600 l 1
 300 300 l 1
 200 300 l 1
 150 600 l 1
 150 0 l 1
 50 0 l 1
EndSplineSet
EndChar

StartChar: N
Encoding: 78 78 46
Width: 500
GlyphClass: 1
Flags: W
HStem: 0 21G<50 150 343.939 450> 980 20G<50 156.061 350 450>
VStem: 50 100<0 660 972.28 1000> 350 100<0 27.72 340 1000>
LayerCount: 2
Fore
SplineSet
50 0 m 1
 50 1000 l 1
 150 1000 l 1
 350 340 l 1
 350 1000 l 1
 450 1000 l 1
 450 0 l 1
 350 0 l 1
 150 660 l 1
 150 0 l 1
 50 0 l 1
EndSplineSet
EndChar

StartChar: O
Encoding: 79 79 47
Width: 500
GlyphClass: 1
Flags: W
HStem: 0 100<150 350> 900 100<150 350>
VStem: 50 100<100 900> 350 100<100 900>
LayerCount: 2
Fore
SplineSet
350 100 m 1
 350 900 l 1
 150 900 l 1
 150 100 l 1
 350 100 l 1
150 0 m 1
 150 0 50 0 50 100 c 2
 50 900 l 1
 50 900 50 1000 150 1000 c 2
 350 1000 l 1
 350 1000 450 1000 450 900 c 2
 450 100 l 1
 450 100 450 0 350 0 c 2
 150 0 l 1
EndSplineSet
EndChar

StartChar: P
Encoding: 80 80 48
Width: 500
GlyphClass: 1
Flags: W
HStem: 0 21G<50 150> 500 100<150 350> 900 100<150 350>
VStem: 50 100<0 500 600 900> 350 100<600 900>
LayerCount: 2
Fore
SplineSet
350 600 m 1
 350 900 l 1
 150 900 l 1
 150 600 l 1
 350 600 l 1
150 500 m 1
 150 0 l 1
 50 0 l 1
 50 1000 l 1
 350 1000 l 2
 450 1000 450 900 450 900 c 1
 450 600 l 2
 450 500 350 500 350 500 c 1
 150 500 l 1
EndSplineSet
EndChar

StartChar: Q
Encoding: 81 81 49
Width: 500
GlyphClass: 1
Flags: W
HStem: 0 100<150 250> 900 100<150 350>
VStem: 50 100<100 900> 350 100<150 900>
LayerCount: 2
Fore
SplineSet
200 200 m 1
 300 250 l 1
 350 150 l 1
 350 900 l 1
 150 900 l 1
 150 100 l 1
 250 100 l 1
 200 200 l 1
150 0 m 1
 150 0 50 0 50 100 c 2
 50 900 l 1
 50 900 50 1000 150 1000 c 2
 350 1000 l 1
 350 1000 450 1000 450 900 c 2
 450 100 l 2
 450 99.6767578125 449.885742188 49.9052734375 414.64453125 20.7109375 c 1
 450 -50 l 1
 350 -100 l 1
 300 0 l 1
 150 0 l 1
EndSplineSet
EndChar

StartChar: R
Encoding: 82 82 50
Width: 500
GlyphClass: 1
Flags: W
HStem: 0 21G<50 150 350 450.49> 500 100<260 350> 900 100<150 350>
VStem: 50 100<0 500 600 900> 350 100<0 101.364 600 900>
LayerCount: 2
Fore
SplineSet
260 500 m 1
 260 500 450.98046875 100 450 0 c 1
 350 0 l 1
 350 100.1796875 150 500 150 500 c 1
 150 0 l 1
 50 0 l 1
 50 1000 l 1
 350 1000 l 2
 450 1000 450 900 450 900 c 1
 450 600 l 2
 450 500 350 500 350 500 c 1
 260 500 l 1
350 600 m 1
 350 900 l 1
 150 900 l 1
 150 600 l 1
 350 600 l 1
EndSplineSet
EndChar

StartChar: S
Encoding: 83 83 51
Width: 500
GlyphClass: 1
Flags: W
HStem: 0 100<50 350> 500 100<150 350> 900 100<150 450>
VStem: 50 100<600 900> 350 100<100 500>
LayerCount: 2
Fore
SplineSet
50 0 m 1
 50 100 l 1
 350 100 l 1
 350 500 l 1
 150 500 l 2
 50 500 50 600 50 600 c 1
 50 900 l 2
 50 1000 150 1000 150 1000 c 1
 450 1000 l 1
 450 900 l 1
 150 900 l 1
 150 600 l 1
 350 600 l 1
 350 600 450 600 450 500 c 2
 450 100 l 1
 450 100 450 0 350 0 c 2
 50 0 l 1
EndSplineSet
EndChar

StartChar: T
Encoding: 84 84 52
Width: 500
GlyphClass: 1
Flags: W
HStem: 0 21G<200 300> 900 100<50 200 300 450>
VStem: 200 100<0 900>
LayerCount: 2
Fore
SplineSet
50 900 m 1
 50 1000 l 1
 200 1000 l 1
 300 1000 l 1
 450 1000 l 1
 450 900 l 1
 300 900 l 1
 300 0 l 1
 200 0 l 1
 200 900 l 1
 50 900 l 1
EndSplineSet
EndChar

StartChar: U
Encoding: 85 85 53
Width: 500
GlyphClass: 1
Flags: W
HStem: 0 100<150 350> 980 20G<50 150 350 450>
VStem: 50 100<100 1000> 350 100<100 1000>
LayerCount: 2
Fore
SplineSet
150 0 m 2
 50 0 50 100 50 100 c 1
 50 1000 l 1
 150 1000 l 1
 150 100 l 1
 350 100 l 1
 350 1000 l 1
 450 1000 l 1
 450 100 l 2
 450 0 350 0 350 0 c 1
 150 0 l 2
EndSplineSet
EndChar

StartChar: V
Encoding: 86 86 54
Width: 500
GlyphClass: 1
Flags: W
HStem: 0 21G<197 303> 980 20G<50 152.857 347.143 450>
LayerCount: 2
Fore
SplineSet
200 0 m 1
 50 1000 l 1
 150 1000 l 1
 250 300 l 1
 350 1000 l 1
 450 1000 l 1
 300 0 l 1
 200 0 l 1
EndSplineSet
EndChar

StartChar: W
Encoding: 87 87 55
Width: 500
GlyphClass: 1
Flags: W
HStem: 0 21G<89.2 194 306 410.8> 580 20G<196 304> 980 20G<50 150.333 349.667 450>
VStem: 50 100<790 1000> 200 100<558 600> 350 100<790 1000>
CounterMasks: 1 1c
LayerCount: 2
Fore
SplineSet
190 0 m 1
 90 0 l 1
 50 1000 l 1
 150 1000 l 1
 160 400 l 1
 200 600 l 1
 300 600 l 1
 340 400 l 1
 350 1000 l 1
 450 1000 l 1
 410 0 l 1
 310 0 l 1
 250 300 l 1
 190 0 l 1
EndSplineSet
EndChar

StartChar: X
Encoding: 88 88 56
Width: 500
GlyphClass: 1
Flags: W
HStem: 0 21G<50 156 344 450> 980 20G<50 156 344 450>
LayerCount: 2
Fore
SplineSet
250 333.333007812 m 1
 150 0 l 1
 50 0 l 1
 200 500 l 1
 50 1000 l 1
 150 1000 l 1
 250 666.666992188 l 1
 350 1000 l 1
 450 1000 l 1
 300 500 l 1
 450 0 l 1
 350 0 l 1
 250 333.333007812 l 1
EndSplineSet
EndChar

StartChar: Y
Encoding: 89 89 57
Width: 500
GlyphClass: 1
Flags: W
HStem: 0 21G<200 300.08> 980 20G<50 155.714 344.286 450>
VStem: 200 100<0 521.333>
LayerCount: 2
Fore
SplineSet
302 500 m 1
 300 0 l 1
 200 0 l 1
 202 500 l 1
 50 1000 l 1
 150 1000 l 1
 250 650 l 1
 350 1000 l 1
 450 1000 l 1
 302 500 l 1
EndSplineSet
EndChar

StartChar: Z
Encoding: 90 90 58
Width: 500
GlyphClass: 1
Flags: W
HStem: 0 100<150 450> 900 100<50 350>
LayerCount: 2
Fore
SplineSet
50 900 m 1
 50 1000 l 1
 450 1000 l 1
 450 890 l 1
 150 100 l 1
 450 100 l 1
 450 0 l 1
 50 0 l 1
 50 110 l 1
 350 900 l 1
 50 900 l 1
EndSplineSet
EndChar

StartChar: bracketleft
Encoding: 91 91 59
Width: 500
GlyphClass: 1
Flags: W
HStem: -100 100<200 400> 1000 100<200 400>
VStem: 100 300<-100 0 1000 1100> 100 100<0 1000>
LayerCount: 2
Fore
SplineSet
100 1100 m 1xe0
 400 1100 l 1
 400 1000 l 1xe0
 200 1000 l 1
 200 0 l 1xd0
 400 0 l 1
 400 -100 l 1
 100 -100 l 1
 100 1100 l 1xe0
EndSplineSet
EndChar

StartChar: backslash
Encoding: 92 92 60
Width: 500
GlyphClass: 1
Flags: W
HStem: 0 21G<344 450> 980 20G<50 156>
LayerCount: 2
Fore
SplineSet
50 1000 m 1
 150 1000 l 1
 450 0 l 1
 350 0 l 1
 50 1000 l 1
EndSplineSet
EndChar

StartChar: bracketright
Encoding: 93 93 61
Width: 500
GlyphClass: 1
Flags: W
HStem: -100 100<100 300> 1000 100<100 300>
VStem: 100 300<-100 0 1000 1100> 300 100<0 1000>
LayerCount: 2
Fore
SplineSet
400 1100 m 1xe0
 400 -100 l 1
 100 -100 l 1
 100 0 l 1xe0
 300 0 l 1
 300 1000 l 1xd0
 100 1000 l 1
 100 1100 l 1
 400 1100 l 1xe0
EndSplineSet
EndChar

StartChar: asciicircum
Encoding: 94 94 62
Width: 500
GlyphClass: 1
Flags: W
HStem: 700 300
LayerCount: 2
Fore
SplineSet
50 700 m 1
 200 1000 l 1
 300 1000 l 1
 450 700 l 1
 350 700 l 1
 250 900 l 1
 150 700 l 1
 50 700 l 1
EndSplineSet
EndChar

StartChar: underscore
Encoding: 95 95 63
Width: 500
GlyphClass: 1
Flags: W
HStem: 0 100<85 415>
VStem: 85 330<0 100>
LayerCount: 2
Fore
SplineSet
85 0 m 1
 85 100 l 1
 415 100 l 1
 415 0 l 1
 85 0 l 1
EndSplineSet
EndChar

StartChar: grave
Encoding: 96 96 64
Width: 500
GlyphClass: 1
Flags: W
HStem: 700 300
LayerCount: 2
Fore
SplineSet
50 900 m 1
 50 1000 l 1
 450 800 l 1
 450 700 l 1
 50 900 l 1
EndSplineSet
EndChar

StartChar: a
Encoding: 97 97 65
Width: 500
GlyphClass: 1
Flags: W
HStem: 0 100<150 349> 300 100<150 350> 500 100<50 350>
VStem: 50 100<100 300> 350 100<100 300 400 500>
LayerCount: 2
Fore
SplineSet
349 100 m 1
 350 300 l 1
 150 300 l 1
 150 100 l 1
 349 100 l 1
450 0 m 1
 150 0 l 2
 50 0 50 100 50 100 c 1
 50 300 l 2
 50 400 150 400 150 400 c 1
 350 400 l 1
 350 500 l 1
 50 500 l 1
 50 600 l 1
 350 600 l 1
 350 600 450 600 450 500 c 2
 450 0 l 1
EndSplineSet
EndChar

StartChar: b
Encoding: 98 98 66
Width: 500
GlyphClass: 1
Flags: W
HStem: 0 100<150 350> 500 100<150 350> 980 20G<50 150>
VStem: 50 100<100 500 600 1000> 350 100<100 500>
LayerCount: 2
Fore
SplineSet
50 600 m 1
 50 1000 l 1
 150 1000 l 1
 150 600 l 1
 350 600 l 1
 350 600 450 600 450 500 c 2
 450 100 l 1
 450 100 450 0 350 0 c 2
 150 0 l 1
 50 0 l 1
 50 100 l 1
 50 500 l 1
 50 600 l 1
150 500 m 1
 150 100 l 1
 350 100 l 1
 350 500 l 1
 150 500 l 1
EndSplineSet
EndChar

StartChar: c
Encoding: 99 99 67
Width: 500
GlyphClass: 1
Flags: W
HStem: 0 100<150 450> 500 100<150 450>
VStem: 50 100<100 500>
LayerCount: 2
Fore
SplineSet
450 0 m 1
 150 0 l 2
 50 0 50 100 50 100 c 1
 50 500 l 2
 50 600 150 600 150 600 c 1
 450 600 l 1
 450 500 l 1
 150 500 l 1
 150 100 l 1
 450 100 l 1
 450 0 l 1
EndSplineSet
EndChar

StartChar: d
Encoding: 100 100 68
Width: 500
GlyphClass: 1
Flags: W
HStem: 0 100<150 350> 500 100<150 350> 980 20G<350 450>
VStem: 50 100<100 500> 350 100<100 500 600 1000>
LayerCount: 2
Fore
SplineSet
450 600 m 1
 450 500 l 1
 450 100 l 1
 450 0 l 1
 350 0 l 1
 150 0 l 2
 50 0 50 100 50 100 c 1
 50 500 l 2
 50 600 150 600 150 600 c 1
 350 600 l 1
 350 1000 l 1
 450 1000 l 1
 450 600 l 1
350 500 m 1
 150 500 l 1
 150 100 l 1
 350 100 l 1
 350 500 l 1
EndSplineSet
EndChar

StartChar: e
Encoding: 101 101 69
Width: 500
GlyphClass: 1
Flags: W
HStem: 0 100<150 450> 300 100<150 350> 500 100<150 350>
VStem: 50 100<100 300 400 500> 350 100<400 500>
LayerCount: 2
Fore
SplineSet
150 400 m 1
 350 400 l 1
 350 500 l 1
 150 500 l 1
 150 400 l 1
450 0 m 1
 150 0 l 2
 50 0 50 100 50 100 c 1
 50 500 l 2
 50 600 150 600 150 600 c 1
 350 600 l 2
 450 600 450 500 450 500 c 1
 450 400 l 2
 450 300 350 300 350 300 c 1
 150 300 l 1
 150 100 l 1
 450 100 l 1
 450 0 l 1
EndSplineSet
EndChar

StartChar: f
Encoding: 102 102 70
Width: 500
GlyphClass: 1
Flags: W
HStem: 0 21G<200 300> 500 100<50 200 300 450> 900 100<300 450>
VStem: 200 100<0 500 600 900>
LayerCount: 2
Fore
SplineSet
50 500 m 1
 50 600 l 1
 200 600 l 1
 200 900 l 2
 200 1000.01953125 300 1000 300 1000 c 1
 450 1000 l 1
 450 900 l 1
 300 900 l 1
 300 600 l 1
 450 600 l 1
 450 500 l 1
 300 500 l 1
 300 0 l 1
 200 0 l 1
 200 500 l 1
 50 500 l 1
EndSplineSet
EndChar

StartChar: g
Encoding: 103 103 71
Width: 500
GlyphClass: 1
Flags: W
HStem: -200 100<50 350> 0 100<150 350> 500 100<150 350>
VStem: 50 100<100 500> 350 100<-100 0 100 500>
LayerCount: 2
Fore
SplineSet
150 500 m 1
 150 100 l 1
 350 100 l 1
 350 500 l 1
 150 500 l 1
50 -200 m 1
 50 -100 l 1
 350 -100 l 1
 350 0 l 1
 150 0 l 2
 50 0 50 100 50 100 c 1
 50 500 l 2
 50 600 150 600 150 600 c 1
 450 600 l 1
 450 -100 l 2
 450 -200 350 -200 350 -200 c 1
 50 -200 l 1
EndSplineSet
EndChar

StartChar: h
Encoding: 104 104 72
Width: 500
GlyphClass: 1
Flags: W
HStem: 0 21G<50 150 350 450> 500 100<150 350> 980 20G<50 150>
VStem: 50 100<0 500 600 1000> 350 100<0 500>
LayerCount: 2
Fore
SplineSet
50 0 m 1
 50 1000 l 1
 150 1000 l 1
 150 600 l 1
 350 600 l 2
 450 600 450 500 450 500 c 1
 450 0 l 1
 350 0 l 1
 350 500 l 1
 150 500 l 1
 150 0 l 1
 50 0 l 1
EndSplineSet
EndChar

StartChar: i
Encoding: 105 105 73
Width: 500
GlyphClass: 1
Flags: W
HStem: 0 100<50 200 300 450> 500 100<50 200> 800 100<200 300>
VStem: 200 100<100 500 800 900>
LayerCount: 2
Fore
SplineSet
200 800 m 1
 200 900 l 1
 300 900 l 1
 300 800 l 1
 200 800 l 1
50 0 m 1
 50 100 l 1
 200 100 l 1
 200 500 l 1
 50 500 l 1
 50 600 l 1
 300 600 l 1
 300 100 l 1
 450 100 l 1
 450 0 l 1
 50 0 l 1
EndSplineSet
EndChar

StartChar: j
Encoding: 106 106 74
Width: 500
GlyphClass: 1
Flags: W
HStem: -200 100<50 350> 500 100<50 350> 800 100<300 400>
VStem: 300 100<800 900> 350 100<-100 500>
LayerCount: 2
Fore
SplineSet
300 800 m 1xf0
 300 900 l 1
 400 900 l 1
 400 800 l 1
 300 800 l 1xf0
50 600 m 1
 450 600 l 1
 450 -100 l 2
 450 -200 350 -200 350 -200 c 1
 50 -200 l 1
 50 -100 l 1
 350 -100 l 1
 350 500 l 1xe8
 50 500 l 1
 50 600 l 1
EndSplineSet
EndChar

StartChar: k
Encoding: 107 107 75
Width: 500
GlyphClass: 1
Flags: W
HStem: 0 21G<50 150 389 450> 580 20G<389 450> 980 20G<50 150>
VStem: 50 100<0 200 341 1000>
LayerCount: 2
Fore
SplineSet
50 0 m 1
 50 1000 l 1
 150 1000 l 1
 150 341 l 1
 409 600 l 1
 450 600 l 1
 450 500 l 1
 250 300 l 1
 450 100 l 1
 450 0 l 1
 409 0 l 1
 179.5 229.5 l 1
 150 200 l 1
 150 0 l 1
 50 0 l 1
EndSplineSet
EndChar

StartChar: l
Encoding: 108 108 76
Width: 500
GlyphClass: 1
Flags: W
HStem: 0 100<50 200 300 450> 900 100<50 200>
VStem: 200 100<100 900>
LayerCount: 2
Fore
SplineSet
50 0 m 1
 50 100 l 1
 145 100 l 1
 200 100 l 1
 200 889 l 1
 200 900 l 1
 50 900 l 1
 50 1000 l 1
 200 1000 l 1
 200 1000 300 1000.00488281 300 900 c 2
 300 466 l 1
 300 100 l 1
 450 100 l 1
 450 0 l 1
 50 0 l 1
EndSplineSet
EndChar

StartChar: m
Encoding: 109 109 77
Width: 500
GlyphClass: 1
Flags: W
HStem: 0 21G<50 150 200 300 350 450> 580 20G<50 150 175 218.031 335.776 399.5>
VStem: 50 100<0 494.318 550 600> 200 100<0 494.318> 350 100<0 500>
CounterMasks: 1 38
LayerCount: 2
Fore
SplineSet
50 0 m 1
 50 600 l 1
 150 600 l 1
 150 550 l 1
 150 550 150 600 200 600 c 0
 236.0625 600 259.12109375 586.731445312 273.864257812 569.860351562 c 1
 293.103515625 583.813476562 321.551757812 600 350 600 c 0
 449 600 450 500 450 500 c 1
 450 0 l 1
 350 0 l 1
 350 500 l 1
 350 500 300 500 300 450 c 2
 300 0 l 1
 200 0 l 1
 200 500 l 1
 200 500 150 500 150 450 c 2
 150 0 l 1
 50 0 l 1
EndSplineSet
EndChar

StartChar: n
Encoding: 110 110 78
Width: 500
GlyphClass: 1
Flags: W
HStem: 0 21G<50 150 350 450> 500 100<250 350>
VStem: 50 100<0 484.835 550 600> 350 100<0 500>
LayerCount: 2
Fore
SplineSet
50 0 m 1
 50 600 l 1
 150 600 l 1
 150 550 l 1
 150 550 200 600 250 600 c 2
 350 600 l 2
 449 600 450 500 450 500 c 1
 450 0 l 1
 350 0 l 1
 350 500 l 1
 250 500 l 1
 250 500 150 500 150 450 c 2
 150 0 l 1
 50 0 l 1
EndSplineSet
EndChar

StartChar: o
Encoding: 111 111 79
Width: 500
GlyphClass: 1
Flags: W
HStem: 0 100<150 350> 500 100<150 350>
VStem: 50 100<100 500> 350 100<100 500>
LayerCount: 2
Fore
SplineSet
350 100 m 1
 350 500 l 1
 150 500 l 1
 150 100 l 1
 350 100 l 1
150 0 m 1
 150 0 50 0 50 100 c 2
 50 500 l 1
 50 500 50 600 150 600 c 2
 350 600 l 1
 350 600 450 600 450 500 c 2
 450 100 l 1
 450 100 450 0 350 0 c 2
 150 0 l 1
EndSplineSet
EndChar

StartChar: p
Encoding: 112 112 80
Width: 500
GlyphClass: 1
Flags: W
HStem: -200 21G<50 150> 0 100<150 350> 500 100<150 350>
VStem: 50 100<-200 0 100 500> 350 100<100 500>
LayerCount: 2
Fore
SplineSet
350 100 m 1
 350 500 l 1
 150 500 l 1
 150 100 l 1
 350 100 l 1
150 0 m 1
 150 -200 l 1
 50 -200 l 1
 50 600 l 1
 350 600 l 2
 450 600 450 500 450 500 c 1
 450 100 l 2
 450 0 350 0 350 0 c 1
 150 0 l 1
EndSplineSet
EndChar

StartChar: q
Encoding: 113 113 81
Width: 500
GlyphClass: 1
Flags: W
HStem: -200 21G<350 450> 0 100<150 350> 500 100<150 350>
VStem: 50 100<100 500> 350 100<-200 0 100 500>
LayerCount: 2
Fore
SplineSet
150 100 m 1
 350 100 l 1
 350 500 l 1
 150 500 l 1
 150 100 l 1
350 0 m 1
 150 0 l 1
 150 0 50 0 50 100 c 2
 50 500 l 1
 50 500 50 600 150 600 c 2
 450 600 l 1
 450 -200 l 1
 350 -200 l 1
 350 0 l 1
EndSplineSet
EndChar

StartChar: r
Encoding: 114 114 82
Width: 500
GlyphClass: 1
Flags: W
HStem: 0 21G<50 150> 500 100<350 450>
VStem: 50 100<0 404.633 500 600>
LayerCount: 2
Fore
SplineSet
150 0 m 1
 50 0 l 1
 50 600 l 1
 150 600 l 1
 150 500 l 1
 150 500 150 600 350 600 c 2
 450 600 l 1
 450 500 l 1
 350 500 l 1
 350 500 150 500 150 300 c 2
 150 0 l 1
EndSplineSet
EndChar

StartChar: s
Encoding: 115 115 83
Width: 500
GlyphClass: 1
Flags: W
HStem: 0 100<50 350> 300 100<150 350> 500 100<150 450>
VStem: 50 100<400 500> 350 100<100 300>
LayerCount: 2
Fore
SplineSet
50 0 m 1
 50 100 l 1
 350 100 l 1
 350 300 l 1
 150 300 l 2
 50 300 50 400 50 400 c 1
 50 500 l 2
 50 600 150 600 150 600 c 1
 450 600 l 1
 450 500 l 1
 150 500 l 1
 150 400 l 1
 350 400 l 1
 350 400 450 400 450 300 c 2
 450 100 l 1
 450 100 450 0 350 0 c 2
 50 0 l 1
EndSplineSet
EndChar

StartChar: t
Encoding: 116 116 84
Width: 500
GlyphClass: 1
Flags: W
HStem: 0 21G<200 300> 500 100<50 200 300 450> 980 20G<200 300>
VStem: 200 100<0 500 600 1000>
LayerCount: 2
Fore
SplineSet
50 500 m 1
 50 600 l 1
 200 600 l 1
 200 1000 l 1
 300 1000 l 1
 300 600 l 1
 450 600 l 1
 450 500 l 1
 300 500 l 1
 300 0 l 1
 200 0 l 1
 200 500 l 1
 50 500 l 1
EndSplineSet
EndChar

StartChar: u
Encoding: 117 117 85
Width: 500
GlyphClass: 1
Flags: W
HStem: 0 100<150 350> 580 20G<50 150 350 450>
VStem: 50 100<100 600> 350 100<100 600>
LayerCount: 2
Fore
SplineSet
150 0 m 2
 50 0 50 100 50 100 c 1
 50 600 l 1
 150 600 l 1
 150 100 l 1
 350 100 l 1
 350 600 l 1
 450 600 l 1
 450 100 l 2
 450 0 350 0 350 0 c 1
 150 0 l 2
EndSplineSet
EndChar

StartChar: v
Encoding: 118 118 86
Width: 500
GlyphClass: 1
Flags: W
HStem: 0 21G<195 305> 580 20G<50 154.444 345.556 450>
VStem: 50 100<566.4 600> 350 100<566.4 600>
LayerCount: 2
Fore
SplineSet
200 0 m 1
 50 600 l 1
 150 600 l 1
 250 150 l 1
 350 600 l 1
 450 600 l 1
 300 0 l 1
 200 0 l 1
EndSplineSet
EndChar

StartChar: w
Encoding: 119 119 87
Width: 500
GlyphClass: 1
Flags: W
HStem: 0 21G<88.6667 194 306 411.333> 580 20G<50 150.645 349.355 450>
VStem: 50 100<474 600> 90 100<0 42> 310 100<0 42> 350 100<474 600>
LayerCount: 2
Fore
SplineSet
190 0 m 1xd8
 90 0 l 1xd8
 50 600 l 1
 150 600 l 1
 160 290 l 1
 200 450 l 1
 300 450 l 1
 340 290 l 1
 350 600 l 1
 450 600 l 1xe4
 410 0 l 1
 310 0 l 1
 250 300 l 1
 190 0 l 1xd8
EndSplineSet
EndChar

StartChar: x
Encoding: 120 120 88
Width: 500
GlyphClass: 1
Flags: W
HStem: 0 21G<50 160 340 450> 580 20G<50 160 340 450>
LayerCount: 2
Fore
SplineSet
250 400 m 1
 350 600 l 1
 450 600 l 1
 300 300 l 1
 450 0 l 1
 350 0 l 1
 250 200 l 1
 150 0 l 1
 50 0 l 1
 200 300 l 1
 50 600 l 1
 150 600 l 1
 250 400 l 1
EndSplineSet
EndChar

StartChar: y
Encoding: 121 121 89
Width: 500
GlyphClass: 1
Flags: W
HStem: -200 100<50 350> 0 100<150 350> 580 20G<50 150 350 450>
VStem: 50 100<100 600> 350 100<-100 0 100 600>
LayerCount: 2
Fore
SplineSet
450 -100 m 2
 450 -200 350 -200 350 -200 c 1
 50 -200 l 1
 50 -100 l 1
 350 -100 l 1
 350 0 l 1
 150 0 l 2
 50 0 50 100 50 100 c 1
 50 600 l 1
 150 600 l 1
 150 100 l 1
 350 100 l 1
 350 600 l 1
 450 600 l 1
 450 -100 l 2
EndSplineSet
EndChar

StartChar: z
Encoding: 122 122 90
Width: 500
GlyphClass: 1
Flags: W
HStem: 0 100<150 450> 500 100<50 350>
LayerCount: 2
Fore
SplineSet
50 600 m 1
 450 600 l 1
 450 475 l 1
 150 100 l 1
 450 100 l 1
 450 0 l 1
 50 0 l 1
 50 125 l 1
 350 500 l 1
 50 500 l 1
 50 600 l 1
EndSplineSet
EndChar

StartChar: braceleft
Encoding: 123 123 91
Width: 500
GlyphClass: 1
Flags: W
HStem: -100 100<300 450> 1000 100<300 450>
VStem: 200 100<0 325 650 1000>
LayerCount: 2
Fore
SplineSet
300 1100 m 1
 450 1100 l 1
 450 1000 l 1
 300 1000 l 1
 300 625 l 1
 175 500 l 1
 300 350 l 1
 300 0 l 1
 450 0 l 1
 450 -100 l 1
 300 -100 l 1
 300 -100 200 -100 200 0 c 2
 200 325 l 1
 50 500 l 1
 200 650 l 1
 200 1000 l 2
 200 1100 300 1100 300 1100 c 1
EndSplineSet
EndChar

StartChar: bar
Encoding: 124 124 92
Width: 500
GlyphClass: 1
Flags: W
VStem: 200 100<-100 1100>
LayerCount: 2
Fore
SplineSet
200 -100 m 1
 200 1100 l 1
 300 1100 l 1
 300 -100 l 1
 200 -100 l 1
EndSplineSet
EndChar

StartChar: braceright
Encoding: 125 125 93
Width: 500
GlyphClass: 1
Flags: W
HStem: -100 100<50 200> 1000 100<50 200>
VStem: 200 100<0 325 650 1000>
LayerCount: 2
Fore
SplineSet
200 1100 m 1
 200 1100 300 1100 300 1000 c 2
 300 650 l 1
 450 500 l 1
 300 325 l 1
 300 0 l 2
 300 -100 200 -100 200 -100 c 1
 50 -100 l 1
 50 0 l 1
 200 0 l 1
 200 350 l 1
 325 500 l 1
 200 625 l 1
 200 1000 l 1
 50 1000 l 1
 50 1100 l 1
 200 1100 l 1
EndSplineSet
EndChar

StartChar: asciitilde
Encoding: 126 126 94
Width: 500
GlyphClass: 1
Flags: W
HStem: 400 100<288.164 420.489> 500 100<79.5107 211.836>
LayerCount: 2
Fore
SplineSet
50 450 m 1x40
 50 550 l 1
 50 550 100 600 150 600 c 0x40
 200 600 300 500 350 500 c 0
 400 500 450 550 450 550 c 1
 450 450 l 1
 450 450 400 400 350 400 c 0x80
 300 400 200 500 150 500 c 0
 100 500 50 450 50 450 c 1x40
EndSplineSet
EndChar

StartChar: exclamdown
Encoding: 161 161 97
Width: 502
GlyphClass: 1
Flags: W
HStem: 580 20G<202 302> 800 100<202 302>
VStem: 202 100<-100 600 800 900>
LayerCount: 2
Fore
SplineSet
202 900 m 1
 302 900 l 1
 302 800 l 1
 202 800 l 1
 202 900 l 1
202 600 m 1
 302 600 l 1
 302 -100 l 1
 202 -100 l 1
 202 600 l 1
EndSplineSet
EndChar

StartChar: cent
Encoding: 162 162 98
Width: 500
GlyphClass: 1
Flags: W
HStem: 200 100<150 250 350 450> 700 100<150 250 350 450>
VStem: 50 100<300 700> 250 100<100 200 300 700 800 900>
LayerCount: 2
Fore
SplineSet
350 200 m 1
 350 100 l 1
 250 100 l 1
 250 200 l 1
 150 200 l 2
 50 200 50 300 50 300 c 1
 50 700 l 2
 50 800 150 800 150 800 c 1
 250 800 l 1
 250 900 l 1
 350 900 l 1
 350 800 l 1
 450 800 l 1
 450 700 l 1
 350 700 l 1
 350 300 l 1
 450 300 l 1
 450 200 l 1
 350 200 l 1
250 700 m 1
 150 700 l 1
 150 300 l 1
 250 300 l 1
 250 700 l 1
EndSplineSet
EndChar

StartChar: sterling
Encoding: 163 163 99
Width: 500
GlyphClass: 1
Flags: W
HStem: 0 101<150 450> 500 100<50 130 230 450> 901 100<230 450>
VStem: 130 100<368.605 500.2 600.45 901>
LayerCount: 2
Fore
SplineSet
450 1001 m 1
 450 901 l 1
 230 901 l 1
 230 600.45 l 1
 450 601 l 1
 450 501 l 1
 230 500.45 l 1
 230 400 l 1
 150 101 l 1
 450 101 l 1
 450 0 l 1
 50 0 l 1
 50 100 l 1
 130 400 l 1
 130 500.2 l 1
 50 500 l 1
 50 600 l 1
 130 600.2 l 1
 130 901 l 1
 130 901 130 1001 230 1001 c 0
 330 1001 450 1001 450 1001 c 1
EndSplineSet
EndChar

StartChar: currency
Encoding: 164 164 100
Width: 500
GlyphClass: 1
Flags: W
HStem: 374.875 80.125<209.226 290.896> 545 81.125<209.207 290.05>
VStem: 73.2197 353.553
LayerCount: 2
Fore
SplineSet
143.9296875 323.223632812 m 1
 73.2197265625 393.93359375 l 1
 133.749023438 454.462890625 l 2
 133.592773438 454.911132812 124.997070312 479.868164062 124.99609375 501.125 c 0
 124.99609375 502.162109375 125.211914062 522.244140625 133.290039062 545.99609375 c 1
 73.2197265625 606.06640625 l 1
 143.9296875 676.776367188 l 1
 202.068359375 618.638671875 l 1
 215.548828125 623.354492188 231.387695312 626.125 249.99609375 626.125 c 0
 266.1640625 626.125 282.502929688 624.033203125 297.924804688 618.638671875 c 1
 356.0625 676.776367188 l 1
 426.772460938 606.06640625 l 1
 366.703125 545.99609375 l 2
 366.849609375 545.564453125 374.99609375 521.4296875 374.99609375 501.125 c 0
 374.99609375 500.650390625 374.8984375 479.395507812 366.244140625 454.462890625 c 1
 426.772460938 393.93359375 l 1
 356.0625 323.223632812 l 1
 297.127929688 382.158203125 l 1
 284.466796875 377.787109375 268.979492188 374.875 249.99609375 374.875 c 0
 231.752929688 374.875 216.171875 377.564453125 202.864257812 382.158203125 c 1
 143.9296875 323.223632812 l 1
249.99609375 545 m 0
 204.99609375 545 204.99609375 500 204.99609375 500 c 1
 204.99609375 500 204.99609375 455 249.99609375 455 c 0
 294.99609375 455 294.99609375 500 294.99609375 500 c 1
 294.99609375 500 293.196289062 545 249.99609375 545 c 0
EndSplineSet
EndChar

StartChar: yen
Encoding: 165 165 101
Width: 500
GlyphClass: 1
Flags: W
HStem: 0 21G<200 300.08> 300 100<50 201.2 301.6 450> 500 100<50 171.6 331.6 450> 980 20G<50 155.714 344.286 450>
VStem: 201.2 100<0 300 400 500>
LayerCount: 2
Fore
SplineSet
50 500 m 1
 50 600 l 1
 171.6 600 l 1
 50 1000 l 1
 150 1000 l 1
 250 650 l 1
 350 1000 l 1
 450 1000 l 1
 331.6 600 l 1
 450 600 l 1
 450 500 l 1
 302 500 l 1
 301.6 400 l 1
 450 400 l 1
 450 300 l 1
 301.2 300 l 1
 300 0 l 1
 200 0 l 1
 201.2 300 l 1
 50 300 l 1
 50 400 l 1
 201.6 400 l 1
 202 500 l 1
 50 500 l 1
EndSplineSet
EndChar

StartChar: brokenbar
Encoding: 166 166 102
Width: 500
GlyphClass: 1
Flags: W
HStem: 601 21G<200 300>
VStem: 200 100<-100 400 601 1100>
LayerCount: 2
Fore
SplineSet
200 601 m 1
 200 1100 l 1
 300 1100 l 1
 300 601 l 1
 200 601 l 1
200 -100 m 1
 200 400 l 1
 300 400 l 1
 300 -100 l 1
 200 -100 l 1
EndSplineSet
EndChar

StartChar: section
Encoding: 167 167 103
Width: 500
GlyphClass: 1
Flags: W
HStem: 1 100<106.792 350> 300 100<150 283.444> 600 100<216.777 350> 901 100<150 393.208>
VStem: 50 100<400 600> 350 100<400 600>
LayerCount: 2
Fore
SplineSet
150 600 m 1
 150 400 l 1
 250 400 l 1
 350 400 l 1
 350 600 l 1
 250 600 l 1
 150 600 l 1
150 300 m 1
 150 300 50 299.955078125 50 400 c 0
 50 500.080078125 50 600 50 600 c 2
 50 601.176757812 50.521484375 677.474609375 118.004882812 695.986328125 c 1
 50 900 l 1
 50 900 50 1001 150 1001 c 0
 250 1001 272 1001 350 1001 c 0
 450 1001 450 901 450 901 c 1
 150 901 l 1
 216.77734375 700 l 1
 350 700 l 1
 350 700 450 699.408203125 450 600 c 0
 450 499.995117188 450 400 450 400 c 2
 450 398.825195312 449.48046875 322.673828125 382.192382812 304.067382812 c 1
 382.21484375 304 l 1
 450 102 l 1
 450 102 450 1 350 1 c 0
 250 1 228 1 150 1 c 0
 50 1 50 101 50 101 c 1
 350 101 l 1
 283.444335938 300 l 1
 150 300 l 1
EndSplineSet
EndChar

StartChar: dieresis
Encoding: 168 168 104
Width: 500
GlyphClass: 1
Flags: W
HStem: 700 100<100 200 300 400>
VStem: 100 100<700 800> 300 100<700 800>
LayerCount: 2
Fore
SplineSet
100 700 m 1
 100 800 l 1
 200 800 l 1
 200 700 l 1
 100 700 l 1
300 700 m 1
 300 800 l 1
 400 800 l 1
 400 700 l 1
 300 700 l 1
EndSplineSet
EndChar

StartChar: copyright
Encoding: 169 169 105
Width: 500
GlyphClass: 1
Flags: W
HStem: 300 60<110.068 350> 400 50<250 350> 550 50<250 350> 640 60<150 389.932>
VStem: 50 60<400 639.932> 150 50<456.491 543.531> 390 60<360.068 600>
LayerCount: 2
Fore
SplineSet
150 300 m 0
 50 300 50 400 50 400 c 1
 50 400 50 499.955078125 50 600 c 0
 50 700 150 700 150 700 c 1
 150 700 272 700 350 700 c 0
 450 700 450 600 450 600 c 1
 450 600 450 500.080078125 450 400 c 0
 450 300 350 300 350 300 c 1
 350 300 250 300 150 300 c 0
110 360 m 1
 390 360 l 1
 390 640 l 1
 110 640 l 1
 110 360 l 1
350 600 m 1
 350 550 l 1
 250 550 l 1
 250 550 200 550.16015625 200 500 c 0
 200 449.959960938 250 450 250 450 c 1
 350 450 l 1
 350 400 l 1
 250 400 l 1
 250 400 150 399.875 150 500 c 0
 150 600.125 250 600 250 600 c 1
 350 600 l 1
EndSplineSet
EndChar

StartChar: ordfeminine
Encoding: 170 170 106
Width: 500
GlyphClass: 1
Flags: W
HStem: 600 100<150 350> 760 90<150 350> 900 100<50 350>
VStem: 50 100<700 760> 350 100<700 760 850 900>
LayerCount: 2
Fore
SplineSet
150 700 m 1
 350 700 l 1
 350 760 l 1
 150 760 l 1
 150 700 l 1
50 900 m 1
 50 1000 l 1
 50 1000 233 1000 350 1000 c 3
 450 1000 450 900 450 900 c 1
 450 600 l 1
 450 600 200 600 130 600 c 3
 52 600 50 680 50 680 c 1
 50 680 50 735 50 770 c 3
 50 850 130 850 130 850 c 1
 350 850 l 1
 350 900 l 1
 50 900 l 1
EndSplineSet
EndChar

StartChar: guillemotleft
Encoding: 171 171 107
Width: 500
GlyphClass: 1
Flags: W
LayerCount: 2
Fore
SplineSet
450 700 m 1
 350 500 l 1
 450 300 l 1
 350 300 l 1
 250 500 l 1
 350 700 l 1
 450 700 l 1
250 700 m 1
 150 500 l 1
 250 300 l 1
 150 300 l 1
 50 500 l 1
 150 700 l 1
 250 700 l 1
EndSplineSet
EndChar

StartChar: logicalnot
Encoding: 172 172 108
Width: 500
GlyphClass: 1
Flags: W
HStem: 500 100<50 350>
VStem: 350 100<350 500>
LayerCount: 2
Fore
SplineSet
50 500 m 25
 50 600 l 25
 450 600 l 25
 450 350 l 25
 350 350 l 25
 350 500 l 25
 50 500 l 25
EndSplineSet
EndChar

StartChar: uni00AD
Encoding: 173 173 109
Width: 500
GlyphClass: 1
Flags: W
HStem: 500 100<60 440>
VStem: 60 380<500 600>
LayerCount: 2
Fore
SplineSet
60 500 m 1
 60 600 l 1
 440 600 l 1
 440 500 l 1
 60 500 l 1
EndSplineSet
EndChar

StartChar: registered
Encoding: 174 174 110
Width: 500
GlyphClass: 1
Flags: W
HStem: 300 60<110.068 350> 475 45<200 250> 560 40<200 287> 640 60<150 389.932>
VStem: 50 60<400 639.932> 150 50<400 475 520 560> 307 43<520.945 559.242> 390 60<360.068 600>
LayerCount: 2
Fore
SplineSet
200 520 m 1
 287 520 l 1
 287 520 307 519.974609375 307 540 c 0
 307 559.104492188 287 560 287 560 c 1
 200 560 l 1
 200 520 l 1
150 400 m 1
 150 600 l 1
 300 600 l 1
 300 600 350 600.072265625 350 538 c 0
 350 475 300 475 300 475 c 1
 350 400 l 1
 300 400 l 1
 250 475 l 1
 200 475 l 1
 200 400 l 1
 150 400 l 1
110 360 m 1
 390 360 l 1
 390 640 l 1
 110 640 l 1
 110 360 l 1
150 300 m 0
 50 300 50 400 50 400 c 1
 50 400 50 499.955078125 50 600 c 0
 50 700 150 700 150 700 c 1
 150 700 272 700 350 700 c 0
 450 700 450 600 450 600 c 1
 450 577 l 1
 450 400 l 2
 450 300 350 300 350 300 c 1
 350 300 250 300 150 300 c 0
EndSplineSet
EndChar

StartChar: macron
Encoding: 175 175 111
Width: 500
GlyphClass: 1
Flags: W
HStem: 700 100<100 400>
VStem: 100 300<700 800>
LayerCount: 2
Fore
SplineSet
100 700 m 1
 100 800 l 1
 400 800 l 1
 400 700 l 1
 100 700 l 1
EndSplineSet
EndChar

StartChar: degree
Encoding: 176 176 112
Width: 500
GlyphClass: 1
Flags: W
HStem: 760 80<210 290> 920 80<210 290>
VStem: 130 80<840 920> 290 80<840 920>
LayerCount: 2
Fore
SplineSet
210 840 m 5
 290 840 l 5
 290 920 l 5
 210 920 l 5
 210 840 l 5
130 920 m 6
 130 1000 210 1000 210 1000 c 5
 290 1000 l 6
 370 1000 370 920 370 920 c 5
 370 840 l 6
 370 760 290 760 290 760 c 5
 210 760 l 6
 130 760 130 840 130 840 c 5
 130 920 l 6
EndSplineSet
EndChar

StartChar: plusminus
Encoding: 177 177 113
Width: 500
GlyphClass: 1
Flags: W
HStem: 200 100<60 440> 500 100<60 200 300 440>
VStem: 200 100<360 500 600 740>
LayerCount: 2
Fore
SplineSet
60 200 m 1
 60 300 l 1
 440 300 l 1
 440 200 l 1
 60 200 l 1
200 740 m 1
 300 740 l 1
 300 600 l 1
 440 600 l 1
 440 500 l 1
 300 500 l 1
 300 360 l 1
 200 360 l 1
 200 500 l 1
 60 500 l 1
 60 600 l 1
 200 600 l 1
 200 662 l 1
 200 740 l 1
EndSplineSet
EndChar

StartChar: uni00B2
Encoding: 178 178 114
Width: 500
GlyphClass: 1
Flags: W
HStem: 600 90<180 450> 910 90<50 360>
LayerCount: 2
Fore
SplineSet
50 910 m 1
 50 1000 l 25
 50 1000 260 1000 360 1000 c 3
 450 1000 450 910 450 910 c 1
 450 870 l 1
 180 690 l 1
 450 690 l 1
 450 600 l 25
 50 600 l 1
 50 690 l 17
 360 910 l 1
 50 910 l 1
EndSplineSet
EndChar

StartChar: uni00B3
Encoding: 179 179 115
Width: 500
GlyphClass: 1
Flags: W
HStem: 600 90<50 360> 760 80<200 334.632> 910 90<50 360>
CounterMasks: 1 e0
LayerCount: 2
Fore
SplineSet
50 910 m 1
 50 1000 l 1
 360 1000 l 1
 360 1000 450 1000.71777344 450 900 c 3
 450 848 400 800 400 800 c 1
 400 800 450 752.153320312 450 700 c 3
 450 599.8203125 360 600 360 600 c 1
 50 600 l 1
 50 690 l 1
 360 690 l 1
 360 690 337.009765625 760 286 760 c 3
 239 760 200 760 200 760 c 5
 200 840 l 5
 200 840 239 840 286 840 c 3
 338.009765625 840 360 910 360 910 c 1
 50 910 l 1
EndSplineSet
EndChar

StartChar: acute
Encoding: 180 180 116
Width: 500
GlyphClass: 1
Flags: W
HStem: 700 300
LayerCount: 2
Fore
SplineSet
450 900 m 1
 50 700 l 1
 50 800 l 1
 450 1000 l 1
 450 900 l 1
EndSplineSet
EndChar

StartChar: mu
Encoding: 181 181 117
Width: 500
GlyphClass: 1
Flags: MW
LayerCount: 2
Fore
SplineSet
150 100 m 1
 350 100 l 1
 350 600 l 1
 450 600 l 1
 450 100 l 2
 450 0 350 0 350 0 c 1
 150 0 l 1
 150 -200 l 1
 50 -200 l 1
 50 600 l 1
 150 600 l 1
 150 300 l 1
 150 100 l 1
EndSplineSet
EndChar

StartChar: paragraph
Encoding: 182 182 118
Width: 500
GlyphClass: 1
Flags: W
HStem: 0 21G<250 325 350 425> 900 100<325 350 425 450>
VStem: 50 275<600 900> 250 75<0 500> 350 75<0 900>
LayerCount: 2
Fore
SplineSet
425 0 m 1xe8
 350 0 l 1
 350 900 l 1
 325 900 l 1xe8
 325 0 l 1
 250 0 l 1
 250 500 l 1xd8
 250 500 250 500 150 500 c 3
 50 500 50 600 50 600 c 1
 50 600 50 800 50 900 c 3
 50 1000.1796875 150 1000 150 1000 c 1
 450 1000 l 1
 450 900 l 1
 425 900 l 1
 425 0 l 1xe8
EndSplineSet
EndChar

StartChar: periodcentered
Encoding: 183 183 119
Width: 500
GlyphClass: 1
Flags: HMW
LayerCount: 2
Fore
SplineSet
175 275 m 5
 175 425 l 5
 325 425 l 5
 325 275 l 5
 175 275 l 5
EndSplineSet
EndChar

StartChar: cedilla
Encoding: 184 184 120
Width: 500
GlyphClass: 1
Flags: W
VStem: 330 70<-121.663 -100>
LayerCount: 2
Fore
SplineSet
200 -100 m 5
 330 -100 l 25
 330 -125 l 25
 200 -125 l 1
 200 -200 l 1
 330 -200 l 25
 330 -200 400 -200.044921875 400 -100 c 3
 400 -25 330 -25 330 -25 c 17
 300 -25 l 1
 300 0 l 1
 200 0 l 5
 200 -100 l 5
EndSplineSet
EndChar

StartChar: uni00B9
Encoding: 185 185 121
Width: 500
GlyphClass: 1
Flags: W
HStem: 600 100<50 200 300 450> 900 100<50 200>
VStem: 200 100<700 900>
LayerCount: 2
Fore
SplineSet
50 700 m 5
 200 700 l 29
 200 900 l 29
 50 900 l 5
 50 1000 l 5
 300 1000 l 29
 300 700 l 29
 450 700 l 5
 450 600 l 29
 50 600 l 29
 50 700 l 5
EndSplineSet
EndChar

StartChar: ordmasculine
Encoding: 186 186 122
Width: 500
GlyphClass: 1
Flags: W
HStem: 700 100<150 350> 1000 100<150 350>
VStem: 50 100<800 1000> 350 100<800 1000>
LayerCount: 2
Fore
SplineSet
150 800 m 25
 350 800 l 25
 350 1000 l 25
 150 1000 l 25
 150 800 l 25
150 700 m 3
 50 700 50 800 50 800 c 25
 50 800 50 899.955078125 50 1000 c 3
 50 1100 150 1100 150 1100 c 25
 150 1100 250 1100 350 1100 c 3
 450 1100 450 1000 450 1000 c 25
 450 1000 450 900.044921875 450 800 c 3
 450 699.680664062 350 700 350 700 c 25
 350 700 250 700 150 700 c 3
EndSplineSet
EndChar

StartChar: guillemotright
Encoding: 187 187 123
Width: 500
GlyphClass: 1
Flags: W
LayerCount: 2
Fore
SplineSet
50 700 m 1
 150 700 l 1
 250 500 l 1
 150 300 l 1
 50 300 l 1
 150 500 l 1
 50 700 l 1
250 700 m 1
 350 700 l 1
 450 500 l 1
 350 300 l 1
 250 300 l 1
 350 500 l 1
 250 700 l 1
EndSplineSet
EndChar

StartChar: onequarter
Encoding: 188 188 124
Width: 500
GlyphClass: 1
Flags: W
HStem: 700 90<50 110 190 250> 910 90<50 110>
VStem: 50 140<910 1000> 110 80<790 910>
LayerCount: 2
Fore
SplineSet
250 300 m 5xc0
 250 100 l 5
 360 100 l 5
 360 0 l 5
 450 0 l 5
 450 300 l 5
 360 300 l 5
 360 190 l 5
 340 190 l 5
 340 300 l 5
 250 300 l 5xc0
50 700 m 1xe0
 50 790 l 1xe0
 110 790 l 1
 110 910 l 1xd0
 50 910 l 1
 50 1000 l 1
 190 1000 l 1xe0
 190 790 l 1xd0
 250 790 l 1
 250 700 l 1
 50 700 l 1xe0
50 100 m 1
 350 900 l 1
 450 900 l 1
 150 100 l 1
 50 100 l 1
EndSplineSet
EndChar

StartChar: onehalf
Encoding: 189 189 125
Width: 500
GlyphClass: 1
Flags: W
HStem: 0 90<350 450> 210 90<250 344> 700 90<50 110 190 250> 910 90<50 110>
VStem: 50 140<910 1000> 110 80<790 910> 250 200<0 90 210 276.105>
LayerCount: 2
Fore
SplineSet
250 210 m 1xf2
 250 300 l 25
 250 300 317 300 360 300 c 3
 450 300 450 213 450 210 c 3
 450 175.94140625 350 90 350 90 c 25
 450 90 l 1
 450 0 l 25
 250 0 l 25
 250 90 l 1
 250 90 385 210 344 210 c 0
 250 210 l 1xf2
50 700 m 25xfa
 50 790 l 25xfa
 110 790 l 25
 110 910 l 25xf6
 50 910 l 25
 50 1000 l 25
 190 1000 l 25xfa
 190 790 l 25xf6
 250 790 l 25
 250 700 l 25
 50 700 l 25xfa
50 100 m 1
 350 900 l 1
 450 900 l 1
 150 100 l 1
 50 100 l 1
EndSplineSet
EndChar

StartChar: threequarters
Encoding: 190 190 126
Width: 500
GlyphClass: 1
Flags: W
HStem: 702 88<50 150> 810 80<100 150> 910 90<50 150>
VStem: 100 150<810 842.866 857.497 890>
LayerCount: 2
Fore
SplineSet
50 100 m 1
 350 900 l 1
 450 900 l 1
 150 100 l 1
 50 100 l 1
250 300 m 1
 250 100 l 1
 360 100 l 1
 360 0 l 1
 450 0 l 1
 450 300 l 1
 360 300 l 1
 360 190 l 1
 340 190 l 1
 340 300 l 1
 250 300 l 1
50 1000 m 1
 160 1000 l 1
 160 1000 250 1000.08007812 250 900 c 3
 250 855 200 850 200 850 c 1
 200 850 250 846 250 800 c 3
 250 699.754882812 160 700 160 700 c 1
 50 702 l 1
 50 790 l 1
 150 790 l 1
 150 790 150 810 125 810 c 3
 115 810 100 810 100 810 c 1
 100 890 l 1
 100 890 105 890 125 890 c 3
 150 890 150 910 150 910 c 1
 50 910 l 1
 50 1000 l 1
EndSplineSet
EndChar

StartChar: questiondown
Encoding: 191 191 127
Width: 500
GlyphClass: 1
Flags: MW
LayerCount: 2
Fore
SplineSet
350 900 m 1
 350 800 l 1
 250 800 l 1
 250 900 l 1
 350 900 l 1
450 0 m 1
 450 -100 l 1
 150 -100 l 2
 50 -100 50 0 50 0 c 1
 50 300 l 2
 50 400 150 400 150 400 c 1
 250 400 l 1
 250 600 l 1
 350 600 l 1
 350 300 l 1
 150 300 l 1
 150 0 l 1
 450 0 l 1
EndSplineSet
EndChar

StartChar: AE
Encoding: 198 198 134
Width: 500
GlyphClass: 1
Flags: HMW
LayerCount: 2
Fore
SplineSet
50 0 m 1
 50 900 l 2
 50 1000 140 1000 140 1000 c 1
 450 1000 l 1
 450 900 l 1
 320 900 l 1
 320 600 l 1
 450 600 l 1
 450 500 l 1
 320 500 l 1
 320 100 l 1
 450 100 l 1
 450 0 l 1
 230 0 l 1
 230 500 l 1
 140 500 l 1
 140 0 l 1
 50 0 l 1
230 600 m 1
 230 900 l 1
 140 900 l 1
 140 600 l 1
 230 600 l 1
EndSplineSet
EndChar

StartChar: Eth
Encoding: 208 208 144
Width: 500
GlyphClass: 1
Flags: HMW
LayerCount: 2
Fore
SplineSet
200 100 m 1
 250 100 l 2
 350 100 350 200 350 200 c 1
 350 800 l 2
 350 900 250 900 250 900 c 1
 200 900 l 1
 200 600 l 1
 300 600 l 1
 300 500 l 1
 200 500 l 1
 200 100 l 1
50 500 m 1
 50 600 l 1
 100 600 l 1
 100 1000 l 1
 250 1000 l 2
 449.952148438 1000 450 800 450 800 c 1
 450 200 l 2
 450 0 250 0 250 0 c 1
 100 0 l 1
 100 500 l 1
 50 500 l 1
EndSplineSet
EndChar

StartChar: multiply
Encoding: 215 215 151
Width: 500
GlyphClass: 1
Flags: HMW
LayerCount: 2
Fore
SplineSet
80.2900390625 648.995117188 m 5
 151.000976562 719.706054688 l 1
 249.99609375 620.7109375 l 1
 348.991210938 719.706054688 l 1
 419.702148438 648.995117188 l 1
 320.70703125 550 l 1
 419.702148438 451.004882812 l 1
 348.991210938 380.293945312 l 1
 249.99609375 479.2890625 l 1
 151.000976562 380.293945312 l 1
 80.2900390625 451.004882812 l 1
 179.28515625 550 l 5
 80.2900390625 648.995117188 l 5
EndSplineSet
EndChar

StartChar: Oslash
Encoding: 216 216 152
Width: 500
GlyphClass: 1
Flags: W
HStem: 0 100<150 350> 900 100<150 350>
VStem: 50 100<100 900> 350 100<100 900>
LayerCount: 2
Fore
SplineSet
50 -100 m 1
 355 1099.29003906 l 25
 455 1099.29003906 l 25
 150 -100 l 1
 50 -100 l 1
EndSplineSet
Refer: 47 79 N 1 0 0 1 0 0 2
EndChar

StartChar: Thorn
Encoding: 222 222 158
Width: 500
GlyphClass: 1
Flags: W
HStem: 0 21G<50 150> 200 100<150 350> 725 100<150 350> 980 20G<50 150>
VStem: 50 100<0 200 300 725 825 1000> 350 100<300 725>
LayerCount: 2
Fore
SplineSet
350 725 m 1
 150 725 l 1
 150 300 l 25
 350 300 l 25
 350 725 l 1
50 0 m 25
 50 1000 l 25
 150 1000 l 25
 150 825 l 25
 150 825 250 825 350 825 c 3
 450 825 450 725 450 725 c 1
 450 725 450 400 450 300 c 3
 450 200 350 200 350 200 c 25
 150 200 l 25
 150 0 l 1
 50 0 l 25
EndSplineSet
EndChar

StartChar: germandbls
Encoding: 223 223 159
Width: 500
GlyphClass: 1
Flags: W
HStem: 0 100<200 350> 500 100<200 250> 900 100<150 350>
VStem: 50 100<0 900> 350 100<100 449.674 650.326 900>
LayerCount: 2
Fore
SplineSet
50 0 m 25
 50 0 50 798.728515625 50 900 c 3
 50 1000 150 1000 150 1000 c 25
 150 1000 250 1000 350 1000 c 3
 450 1000 450 900 450 900 c 25
 450 900 450 700 450 650 c 3
 450 596.858398438 350 550 350 550 c 25
 350 550 450 500 450 450 c 3
 450 400 450 200.1796875 450 100 c 3
 450 0 350 0 350 0 c 1
 200 0 l 25
 200 100 l 25
 350 100 l 1
 350 100 350 300 350 400 c 3
 350 455 250 500 250 500 c 25
 200 500 l 25
 200 600 l 25
 250 600 l 25
 250 600 350 645 350 700 c 3
 350 800 350 900 350 900 c 25
 150 900 l 25
 150 0 l 25
 50 0 l 25
EndSplineSet
EndChar

StartChar: ae
Encoding: 230 230 166
Width: 500
GlyphClass: 1
Flags: HMW
LayerCount: 2
Fore
SplineSet
205 300 m 1
 140 300 l 1
 140 100 l 1
 204 100 l 1
 205 300 l 1
295 400 m 1
 360 400 l 1
 360 500 l 1
 295 500 l 1
 295 400 l 1
295 300 m 1
 295 100 l 1
 450 100 l 1
 450 0 l 1
 150 0 l 0
 50.181640625 0 50 100 50 100 c 1
 50 300 l 2
 50 400 150 400 150 400 c 1
 205 400 l 1
 205 500 l 1
 50 500 l 1
 50 600 l 1
 200 600 l 2
 200.678710938 600 227.1171875 599.822265625 252.631835938 586.13671875 c 0
 252.635742188 586.139648438 275.892578125 599.999023438 300 600 c 2
 350 600 l 2
 450 600 450 500 450 500 c 1
 450 400 l 2
 450 300 350 300 350 300 c 1
 295 300 l 1
EndSplineSet
EndChar

StartChar: eth
Encoding: 240 240 176
Width: 500
GlyphClass: 1
Flags: W
HStem: 0 100<150 350> 500 100<150 325> 980 20G<50 165>
VStem: 50 100<100 500> 350 100<100 500>
LayerCount: 2
Fore
SplineSet
50 1000 m 1
 150 1000 l 1
 260.526367188 852.631835938 l 1
 450 900 l 1
 450 800 l 1
 323.684570312 768.420898438 l 1
 450 600 l 1
 450 100 l 1
 450 100 450 0 350 0 c 0
 250 0 150 0 150 0 c 1
 150 0 50 0 50 100 c 0
 50 200.1796875 50 500 50 500 c 1
 50 500 50 600 150 600 c 0
 250 600 325 600 325 600 c 1
 220.422851562 742.60546875 l 1
 50 700 l 1
 50 800 l 1
 158.451171875 827.112304688 l 1
 50 975 l 1
 50 1000 l 1
350 500 m 1
 150 500 l 1
 150 100 l 1
 350 100 l 1
 350 500 l 1
EndSplineSet
EndChar

StartChar: divide
Encoding: 247 247 183
Width: 500
GlyphClass: 1
Flags: W
HStem: 325 100<200 300> 500 100<60 440> 675 100<200 300>
VStem: 200 100<325 425 675 775>
CounterMasks: 1 e0
LayerCount: 2
Fore
SplineSet
200 675 m 29
 200 775 l 29
 300 775 l 29
 300 675 l 29
 200 675 l 29
200 425 m 25
 300 425 l 25
 300 325 l 25
 200 325 l 25
 200 425 l 25
60 500 m 1
 60 600 l 1
 440 600 l 1
 440 500 l 1
 60 500 l 1
EndSplineSet
EndChar

StartChar: oslash
Encoding: 248 248 184
Width: 500
GlyphClass: 1
Flags: W
HStem: 0 100<150 350> 500 100<150 350>
VStem: 50 100<100 500> 350 100<100 500>
LayerCount: 2
Fore
SplineSet
50 -100 m 25
 350 700 l 29
 450 700 l 29
 150 -100 l 29
 50 -100 l 25
EndSplineSet
Refer: 79 111 N 1 0 0 1 0 0 2
EndChar

StartChar: thorn
Encoding: 254 254 190
Width: 500
GlyphClass: 1
Flags: HMW
LayerCount: 2
Fore
SplineSet
350 300 m 1
 350 600 l 1
 150 600 l 1
 150 300 l 1
 350 300 l 1
150 700 m 1
 350 700 l 1
 350 700 450 700 450 600 c 2
 450 300 l 1
 450 300 450 200 350 200 c 2
 150 200 l 1
 150 0 l 1
 50 0 l 5
 50 1000 l 5
 150 1000 l 1
 150 700 l 1
EndSplineSet
EndChar

StartChar: glyph304
Encoding: 11020 11020 192
Width: 500
GlyphClass: 1
Flags: W
HStem: 450 100<190 310>
LayerCount: 2
Fore
SplineSet
50 500 m 1
 150 700 l 1
 190 700 l 1
 190 550 l 1
 310 550 l 1
 310 700 l 1
 350 700 l 1
 450 500 l 1
 350 300 l 1
 310 300 l 1
 310 450 l 1
 190 450 l 1
 190 300 l 1
 150 300 l 1
 50 500 l 1
EndSplineSet
EndChar

StartChar: uni2E30
Encoding: 11824 11824 193
Width: 500
GlyphClass: 1
Flags: W
HStem: 200 100<200 300> 400 100<200 300>
VStem: 100 100<300 400> 300 100<300 400>
LayerCount: 2
Fore
SplineSet
300 200 m 1
 200 200 l 2
 100 200 100 300 100 300 c 1
 100 400 l 2
 100 500.499023438 200 500 200 500 c 1
 300 500 l 2
 400 500 400 400 400 400 c 1
 400 300 l 2
 400 200 300 200 300 200 c 1
300 400 m 1
 200 400 l 1
 200 300 l 1
 300 300 l 1
 300 400 l 1
EndSplineSet
EndChar

StartChar: u10450
Encoding: 66640 66640 194
Width: 500
GlyphClass: 1
Flags: W
HStem: 0 100<100 250 350 450> 900 100<50 250>
VStem: 250 100<100 900>
LayerCount: 2
Fore
SplineSet
50 900 m 1
 50 1000 l 1
 250 1000 l 2
 350 1000 350 900 350 900 c 1
 350 100 l 1
 450 100 l 1
 450 0 l 1
 350 0 l 1
 250 0 l 1
 100 0 l 1
 100 100 l 1
 250 100 l 1
 250 900 l 1
 50 900 l 1
EndSplineSet
EndChar

StartChar: u10451
Encoding: 66641 66641 195
Width: 500
GlyphClass: 1
Flags: W
HStem: 0 100<50.001 200.001 300 450> 700 100<50 184.708> 980 20G<200 300>
VStem: 200.001 99.999<100 708.866 900 1000>
LayerCount: 2
Fore
SplineSet
50 0 m 1
 50.0009765625 100 l 1
 200.000976562 100 l 1
 200.000976562 708.866210938 l 1
 185.017578125 703.3671875 168.350585938 700 150 700 c 2
 50 700 l 1
 50 800 l 1
 150 800 l 2
 200 800 200 900 200 900 c 1
 200 1000 l 1
 300 1000 l 1
 300 900 l 1
 300 800 l 1
 300 100 l 1
 450 100 l 1
 450 0 l 1
 300 0 l 1
 200 0 l 1
 50 0 l 1
EndSplineSet
EndChar

StartChar: u10452
Encoding: 66642 66642 196
Width: 500
GlyphClass: 1
Flags: W
HStem: 0 100<150 450> 500 100<150 350> 980 20G<350 450>
VStem: 50 100<100 500> 350 100<600 1000>
LayerCount: 2
Fore
SplineSet
450 0 m 1
 150 0 l 1
 150 0 50 0 50 100 c 2
 50 500 l 1
 50 500 50 600 150 600 c 2
 350 600 l 1
 350 1000 l 1
 450 1000 l 1
 450 500 l 1
 150 500 l 1
 150 100 l 1
 450 100 l 1
 450 0 l 1
EndSplineSet
EndChar

StartChar: u10453
Encoding: 66643 66643 197
Width: 500
GlyphClass: 1
Flags: W
HStem: 0 100<50 350> 980 20G<350 450>
VStem: 350 100<100 1000>
LayerCount: 2
Fore
SplineSet
50 100 m 1
 350 100 l 1
 350 1000 l 1
 450 1000 l 1
 450 100 l 1
 450 100 450 0 350 0 c 2
 50 0 l 1
 50 100 l 1
EndSplineSet
EndChar

StartChar: u10454
Encoding: 66644 66644 198
Width: 500
GlyphClass: 1
Flags: W
HStem: 0 100<150 350> 500 100<150 350> 900 100<50 350>
VStem: 50 100<100 500> 350 100<100 500 600 900>
LayerCount: 2
Fore
SplineSet
150 500 m 1
 150 100 l 1
 350 100 l 1
 350 500 l 1
 150 500 l 1
50 900 m 1
 50 1000 l 1
 350 1000 l 2
 450 1000 450 900 450 900 c 1
 450 100 l 2
 450 0 350 0 350 0 c 1
 150 0 l 2
 50 0 50 100 50 100 c 1
 50 500 l 2
 50 600 150 600 150 600 c 1
 350 600 l 1
 350 900 l 1
 50 900 l 1
EndSplineSet
EndChar

StartChar: u10455
Encoding: 66645 66645 199
Width: 500
GlyphClass: 1
Flags: W
HStem: 0 100<50 350> 500 100<150 350> 900 100<150 450>
VStem: 50 100<600 900> 350 100<100 500>
LayerCount: 2
Fore
SplineSet
50 0 m 1
 50 100 l 1
 350 100 l 1
 350 500 l 1
 150 500 l 2
 50 500 50 600 50 600 c 1
 50 900 l 2
 50 1000 150 1000 150 1000 c 1
 450 1000 l 1
 450 900 l 1
 150 900 l 1
 150 600 l 1
 350 600 l 1
 350 600 450 600 450 500 c 2
 450 100 l 1
 450 100 450 0 350 0 c 2
 50 0 l 1
EndSplineSet
EndChar

StartChar: u10456
Encoding: 66646 66646 200
Width: 500
GlyphClass: 1
Flags: W
HStem: 0 100<150 450> 980 20G<342.5 450>
VStem: 50 100<100 200>
LayerCount: 2
Fore
SplineSet
450 0 m 1
 150 0 l 2
 50 0 50 100 50 100 c 1
 50 200 l 1
 350 1000 l 1
 450 1000 l 1
 150 200 l 1
 150 100 l 1
 450 100 l 1
 450 0 l 1
EndSplineSet
EndChar

StartChar: u10457
Encoding: 66647 66647 201
Width: 500
GlyphClass: 1
Flags: W
HStem: 0 100<150 450> 800 100<50 244.905> 980 20G<350 450>
VStem: 50 100<100 200>
LayerCount: 2
Fore
SplineSet
450 0 m 1
 150 0 l 2
 50 0 50 100 50 100 c 1
 50 200 l 1
 288.028320312 834.7421875 l 1
 249.052734375 814.068359375 203.04296875 800 150 800 c 2
 50 800 l 1
 50 900 l 1
 150 900 l 2
 250 900 350 1000 350 1000 c 1
 450 1000 l 1
 150 200 l 1
 150 100 l 1
 450 100 l 1
 450 0 l 1
EndSplineSet
EndChar

StartChar: u10458
Encoding: 66648 66648 202
Width: 500
GlyphClass: 1
Flags: W
HStem: 0 21G<344 450> 980 20G<50 156>
LayerCount: 2
Fore
SplineSet
50 1000 m 1
 150 1000 l 1
 450 0 l 1
 350 0 l 1
 50 1000 l 1
EndSplineSet
EndChar

StartChar: u10459
Encoding: 66649 66649 203
Width: 500
GlyphClass: 1
Flags: W
HStem: 0 21G<49.9998 50 450 450> 900 100<150 350>
VStem: 49.999 100.001<294.668 900> 350 99.999<295.365 900>
LayerCount: 2
Fore
SplineSet
50 0 m 1
 49.9990234375 120 l 1
 49.9990234375 120 103.780273438 152.268554688 165.80078125 190.999023438 c 1
 100.596679688 239.134765625 49.9990234375 282.216796875 49.9990234375 300 c 2
 49.9990234375 900 l 2
 49.9990234375 1000 149.999023438 1000 149.999023438 1000 c 1
 349.999023438 1000 l 2
 449.999023438 1000 449.999023438 900 449.999023438 900 c 1
 449.999023438 300 l 2
 449.999023438 282.16796875 399.122070312 238.897460938 333.658203125 190.6015625 c 1
 395.90625 152.030273438 450 120 450 120 c 1
 450 0 l 1
 450 0 350 62.5 250 131.25 c 1
 150 62.5 50 0 50 0 c 1
249.209960938 244.092773438 m 1
 304.647460938 280.259765625 350 312.223632812 350 320 c 2
 350 900 l 1
 150 900 l 1
 150 320 l 2
 150 311.388671875 194.493164062 279.748046875 249.209960938 244.092773438 c 1
EndSplineSet
EndChar

StartChar: u1045A
Encoding: 66650 66650 204
Width: 500
GlyphClass: 1
Flags: W
HStem: -200 100<150 450> 580 20G<50 150>
VStem: 50 100<-100 600>
LayerCount: 2
Fore
SplineSet
450 -100 m 1
 450 -200 l 1
 150 -200 l 2
 50 -200 50 -100 50 -100 c 1
 50 600 l 1
 150 600 l 1
 150 -100 l 1
 450 -100 l 1
EndSplineSet
EndChar

StartChar: u1045B
Encoding: 66651 66651 205
Width: 500
GlyphClass: 1
Flags: W
HStem: -200 21G<50 150> 0 100<210.659 450> 580 20G<50 150>
VStem: 50 100<-200 -100 55.1162 600>
LayerCount: 2
Fore
SplineSet
450 0 m 1
 350 0 l 2
 150 0 150 -100 150 -100 c 1
 150 -200 l 1
 50 -200 l 1
 50 -100 l 1
 50 600 l 1
 150 600 l 1
 150 55.1162109375 l 1
 194.224609375 81.1943359375 258.008789062 100 350 100 c 2
 450 100 l 1
 450 0 l 1
EndSplineSet
EndChar

StartChar: u1045C
Encoding: 66652 66652 206
Width: 500
GlyphClass: 1
Flags: W
HStem: -200 21G<50 150> 0 100<150 350> 500 100<50 350>
VStem: 50 100<-200 0> 350 100<100 500>
LayerCount: 2
Fore
SplineSet
50 600 m 1
 350 600 l 1
 350 600 450 600 450 500 c 2
 450 100 l 1
 450 100 450 0 350 0 c 2
 150 0 l 1
 150 -200 l 1
 50 -200 l 1
 50 100 l 1
 350 100 l 1
 350 500 l 1
 50 500 l 1
 50 600 l 1
EndSplineSet
EndChar

StartChar: u1045D
Encoding: 66653 66653 207
Width: 500
GlyphClass: 1
Flags: W
HStem: -200 21G<50 150> 500 100<150 450>
VStem: 50 100<-200 500>
LayerCount: 2
Fore
SplineSet
450 500 m 1
 150 500 l 1
 150 -200 l 1
 50 -200 l 1
 50 500 l 1
 50 500 50 600 150 600 c 2
 450 600 l 1
 450 500 l 1
EndSplineSet
EndChar

StartChar: u1045E
Encoding: 66654 66654 208
Width: 500
GlyphClass: 1
Flags: W
HStem: -200 100<150 450> 0 100<150 350> 500 100<150 350>
VStem: 50 100<-100 0 100 500> 350 100<100 500>
LayerCount: 2
Fore
SplineSet
350 100 m 1
 350 500 l 1
 150 500 l 1
 150 100 l 1
 350 100 l 1
450 -100 m 1
 450 -200 l 1
 150 -200 l 2
 50 -200 50 -100 50 -100 c 1
 50 500 l 2
 50 600 150 600 150 600 c 1
 350 600 l 2
 450 600 450 500 450 500 c 1
 450 100 l 2
 450 0 350 0 350 0 c 1
 150 0 l 1
 150 -100 l 1
 450 -100 l 1
EndSplineSet
EndChar

StartChar: u1045F
Encoding: 66655 66655 209
Width: 500
GlyphClass: 1
Flags: W
HStem: -200 100<150 450> 100 100<150 350> 500 100<50 350>
VStem: 50 100<-100 100> 350 100<200 500>
LayerCount: 2
Fore
SplineSet
450 -200 m 1
 150 -200 l 2
 50 -200 50 -100 50 -100 c 1
 50 100 l 2
 50 200 150 200 150 200 c 1
 350 200 l 1
 350 500 l 1
 50 500 l 1
 50 600 l 1
 350 600 l 1
 350 600 450 600 450 500 c 2
 450 200 l 1
 450 200 450 100 350 100 c 2
 150 100 l 1
 150 -100 l 1
 450 -100 l 1
 450 -200 l 1
EndSplineSet
EndChar

StartChar: u10460
Encoding: 66656 66656 210
Width: 500
GlyphClass: 1
Flags: W
HStem: -200 21G<50 160> 500 100<50 350>
VStem: 350 100<400 500>
LayerCount: 2
Fore
SplineSet
50 600 m 1
 350 600 l 2
 450 600 450 500 450 500 c 1
 450 400 l 1
 150 -200 l 1
 50 -200 l 1
 350 400 l 1
 350 500 l 1
 50 500 l 1
 50 600 l 1
EndSplineSet
EndChar

StartChar: u10461
Encoding: 66657 66657 211
Width: 500
GlyphClass: 1
Flags: W
HStem: -200 21G<50 150> -100 100<255.095 450> 500 100<50 350>
VStem: 350 100<400 500>
LayerCount: 2
Fore
SplineSet
50 600 m 1
 350 600 l 2
 450 600 450 500 450 500 c 1
 450 400 l 1
 239 -25 l 1
 277.975585938 -4.326171875 296.95703125 0 350 0 c 2
 450 0 l 1
 450 -100 l 1
 350 -100 l 2
 250 -100 150 -200 150 -200 c 1
 50 -200 l 1
 350 400 l 1
 350 500 l 1
 50 500 l 1
 50 600 l 1
EndSplineSet
EndChar

StartChar: u10462
Encoding: 66658 66658 212
Width: 500
GlyphClass: 1
Flags: W
HStem: -200 21G<50 157.5> 580 20G<342.5 450>
LayerCount: 2
Fore
SplineSet
50 -200 m 1
 350 600 l 1
 450 600 l 1
 150 -200 l 1
 50 -200 l 1
EndSplineSet
EndChar

StartChar: u10463
Encoding: 66659 66659 213
Width: 500
GlyphClass: 1
Flags: W
HStem: -200 100<150 350> 580 20G<50 50 450 450>
VStem: 50.001 99.999<-100 304.635> 350 100.001<-100 305.332>
LayerCount: 2
Fore
SplineSet
450 600 m 1
 450.000976562 480 l 1
 450.000976562 480 396.219726562 447.731445312 334.19921875 409.000976562 c 1
 399.403320312 360.865234375 450.000976562 317.783203125 450.000976562 300 c 2
 450.000976562 -100 l 2
 450.000976562 -200 350.000976562 -200 350.000976562 -200 c 1
 150.000976562 -200 l 2
 50.0009765625 -200 50.0009765625 -100 50.0009765625 -100 c 1
 50.0009765625 300 l 2
 50.0009765625 317.83203125 100.877929688 361.102539062 166.341796875 409.3984375 c 1
 104.09375 447.969726562 50 480 50 480 c 1
 50 600 l 1
 50 600 150 537.5 250 468.75 c 1
 350 537.5 450 600 450 600 c 1
250.790039062 355.907226562 m 1
 195.352539062 319.740234375 150 287.776367188 150 280 c 2
 150 -100 l 1
 350 -100 l 1
 350 280 l 2
 350 288.611328125 305.506835938 320.251953125 250.790039062 355.907226562 c 1
EndSplineSet
EndChar

StartChar: u10464
Encoding: 66660 66660 214
Width: 500
GlyphClass: 1
Flags: W
HStem: 0 100<150 450> 500 100<150 450>
VStem: 50 100<100 500>
LayerCount: 2
Fore
SplineSet
450 0 m 1
 150 0 l 2
 50 0 50 100 50 100 c 1
 50 500 l 2
 50 600 150 600 150 600 c 1
 450 600 l 1
 450 500 l 1
 150 500 l 1
 150 100 l 1
 450 100 l 1
 450 0 l 1
EndSplineSet
EndChar

StartChar: u10465
Encoding: 66661 66661 215
Width: 500
GlyphClass: 1
Flags: W
HStem: 0 100<50 200> 500 100<300 450>
VStem: 200 100<100 500>
LayerCount: 2
Fore
SplineSet
50 0 m 1
 50 100 l 1
 200 100 l 1
 200 500 l 1
 200 500 200 600 300 600 c 2
 450 600 l 1
 450 500 l 1
 300 500 l 1
 300 100 l 1
 300 100 300 0 200 0 c 2
 50 0 l 1
EndSplineSet
EndChar

StartChar: u10466
Encoding: 66662 66662 216
Width: 500
GlyphClass: 1
Flags: W
HStem: 0 100<50 200 300 450> 500 100<50 200>
VStem: 200 100<100 500>
LayerCount: 2
Fore
SplineSet
50 0 m 1
 50 100 l 1
 200 100 l 1
 200 500 l 1
 50 500 l 1
 50 600 l 1
 300 600 l 1
 300 100 l 1
 450 100 l 1
 450 0 l 1
 50 0 l 1
EndSplineSet
EndChar

StartChar: u10467
Encoding: 66663 66663 217
Width: 500
GlyphClass: 1
Flags: W
HStem: 0 100<150 450> 580 20G<50 150>
VStem: 50 100<100 600>
LayerCount: 2
Fore
SplineSet
450 0 m 1
 150 0 l 2
 50 0 50 100 50 100 c 1
 50 600 l 1
 150 600 l 1
 150 100 l 1
 450 100 l 1
 450 0 l 1
EndSplineSet
EndChar

StartChar: u10468
Encoding: 66664 66664 218
Width: 500
GlyphClass: 1
Flags: W
HStem: 0 100<50 350> 580 20G<350 450>
VStem: 350 100<100 600>
LayerCount: 2
Fore
SplineSet
50 0 m 1
 50 100 l 1
 350 100 l 1
 350 600 l 1
 450 600 l 1
 450 100 l 1
 450 100 450 0 350 0 c 2
 50 0 l 1
EndSplineSet
EndChar

StartChar: u10469
Encoding: 66665 66665 219
Width: 500
GlyphClass: 1
Flags: W
HStem: 0 21G<50 150> 500 100<150 450>
VStem: 50 100<0 500>
LayerCount: 2
Fore
SplineSet
450 600 m 1
 450 500 l 1
 150 500 l 1
 150 0 l 1
 50 0 l 1
 50 500 l 1
 50 500 50 600 150 600 c 2
 450 600 l 1
EndSplineSet
EndChar

StartChar: u1046A
Encoding: 66666 66666 220
Width: 500
GlyphClass: 1
Flags: W
HStem: 0 21G<350 450> 500 100<50 350>
VStem: 350 100<0 500>
LayerCount: 2
Fore
SplineSet
50 600 m 1
 350 600 l 2
 450 600 450 500 450 500 c 1
 450 0 l 1
 350 0 l 1
 350 500 l 1
 50 500 l 1
 50 600 l 1
EndSplineSet
EndChar

StartChar: u1046B
Encoding: 66667 66667 221
Width: 500
GlyphClass: 1
Flags: W
HStem: 0 21G<195 305> 580 20G<50 154.444 345.556 450>
VStem: 50 100<566.4 600> 350 100<566.4 600>
LayerCount: 2
Fore
SplineSet
200 0 m 1
 50 600 l 1
 150 600 l 1
 250 150 l 1
 350 600 l 1
 450 600 l 1
 300 0 l 1
 200 0 l 1
EndSplineSet
EndChar

StartChar: u1046C
Encoding: 66668 66668 222
Width: 500
GlyphClass: 1
Flags: W
HStem: 0 100<300 450> 200 100<150 200> 580 20G<327.778 450>
VStem: 200 100<100 200>
LayerCount: 2
Fore
SplineSet
450 0 m 1
 300 0 l 2
 200 0 200 100 200 100 c 1
 200 200 l 1
 50 200 l 1
 50 330 l 1
 350 600 l 1
 450 600 l 1
 450 570 l 1
 150 300 l 1
 200 300 l 2
 300 300 300 200 300 200 c 1
 300 100 l 1
 450 100 l 1
 450 0 l 1
EndSplineSet
EndChar

StartChar: u1046D
Encoding: 66669 66669 223
Width: 500
GlyphClass: 1
Flags: W
HStem: 0 100<50 244.263> 200 100<150 350> 500 100<150 450>
VStem: 50 100<300 500>
LayerCount: 2
Fore
SplineSet
50 0 m 1
 50 100 l 1
 150 100 l 2
 250 100 350 200 350 200 c 1
 150 200 l 2
 50 200 50 300 50 300 c 1
 50 500 l 2
 50 600 150 600 150 600 c 1
 450 600 l 1
 450 500 l 1
 150 500 l 1
 150 300 l 1
 450 300 l 1
 450 200 l 1
 450 200 350 0 150 0 c 2
 50 0 l 1
EndSplineSet
EndChar

StartChar: u1046E
Encoding: 66670 66670 224
Width: 500
GlyphClass: 1
Flags: W
HStem: 0 100<50 350> 500 100<50 350>
VStem: 350 100<100 500>
LayerCount: 2
Fore
SplineSet
50 0 m 1
 50 100 l 1
 350 100 l 1
 350 500 l 1
 50 500 l 1
 50 600 l 1
 350 600 l 1
 350 600 450 600 450 500 c 2
 450 100 l 1
 450 100 450 0 350 0 c 2
 50 0 l 1
EndSplineSet
EndChar

StartChar: u1046F
Encoding: 66671 66671 225
Width: 523
GlyphClass: 1
Flags: W
HStem: 0 100<300 450> 500 100<50 200>
VStem: 200 100<100 500>
LayerCount: 2
Fore
SplineSet
450 0 m 1
 300 0 l 2
 200 0 200 100 200 100 c 1
 200 500 l 1
 50 500 l 1
 50 600 l 1
 200 600 l 2
 300 600 300 500 300 500 c 1
 300 100 l 1
 450 100 l 1
 450 0 l 1
EndSplineSet
EndChar

StartChar: u10470
Encoding: 66672 66672 226
Width: 500
GlyphClass: 1
Flags: W
HStem: 0 21G<350 450> 580 20G<50 150>
VStem: 50 100<300 600> 350 100<0 300>
LayerCount: 2
Fore
SplineSet
50 600 m 1
 150 600 l 1
 150 300 l 1
 350 400 l 1
 350 400 450 451 450 300 c 2
 450 0 l 1
 350 0 l 1
 350 300 l 1
 150 200 l 1
 150 200 50 148 50 300 c 2
 50 600 l 1
EndSplineSet
EndChar

StartChar: u10471
Encoding: 66673 66673 227
Width: 500
GlyphClass: 1
Flags: W
HStem: 0 100<263.584 450> 500 100<150 450>
VStem: 50 100<400 500>
LayerCount: 2
Fore
SplineSet
450 0 m 1
 350 0 l 2
 50 0 50 400 50 400 c 1
 50 600 l 1
 450 600 l 1
 450 500 l 1
 150 500 l 1
 150 400 l 1
 150 400 150 100 350 100 c 2
 450 100 l 1
 450 0 l 1
EndSplineSet
EndChar

StartChar: u10472
Encoding: 66674 66674 228
Width: 500
GlyphClass: 1
Flags: W
HStem: 0 100<50 236.416> 500 100<50 350>
VStem: 350 100<400 500>
LayerCount: 2
Fore
SplineSet
50 0 m 1
 50 100 l 1
 150 100 l 2
 350 100 350 400 350 400 c 1
 350 500 l 1
 50 500 l 1
 50 600 l 1
 450 600 l 1
 450 400 l 1
 450 400 450 0 150 0 c 2
 50 0 l 1
EndSplineSet
EndChar

StartChar: u10473
Encoding: 66675 66675 229
Width: 500
GlyphClass: 1
Flags: W
HStem: 0 21G<150 250> 500 100<50 334.172>
VStem: 150 100<0 229.156>
LayerCount: 2
Fore
SplineSet
150 0 m 1
 150 100 l 2
 150 272.959960938 249.717773438 412.681640625 334.171875 500 c 1
 50 500 l 1
 50 600 l 1
 450 600 l 1
 450 500 l 1
 450 500 250 300 250 100 c 2
 250 0 l 1
 150 0 l 1
EndSplineSet
EndChar

StartChar: u10474
Encoding: 66676 66676 230
Width: 500
GlyphClass: 1
Flags: W
HStem: 0 100<150 350> 500 100<150 350>
VStem: 50 100<100 500> 350 100<100 500>
LayerCount: 2
Fore
SplineSet
350 100 m 1
 350 500 l 1
 150 500 l 1
 150 100 l 1
 350 100 l 1
150 0 m 1
 150 0 50 0 50 100 c 2
 50 500 l 1
 50 500 50 600 150 600 c 2
 350 600 l 1
 350 600 450 600 450 500 c 2
 450 100 l 1
 450 100 450 0 350 0 c 2
 150 0 l 1
EndSplineSet
EndChar

StartChar: u10475
Encoding: 66677 66677 231
Width: 500
GlyphClass: 1
Flags: W
HStem: 0 21G<50 154.444 345.556 450> 580 20G<195 305>
VStem: 50 100<0 33.6> 350 100<0 33.6>
LayerCount: 2
Fore
SplineSet
200 600 m 1
 300 600 l 1
 450 0 l 1
 350 0 l 1
 250 450 l 1
 150 0 l 1
 50 0 l 1
 200 600 l 1
EndSplineSet
EndChar

StartChar: u10476
Encoding: 66678 66678 232
Width: 500
GlyphClass: 1
Flags: W
HStem: 0 100<50 200> 200 100<300 350> 580 20G<50 172.222>
VStem: 200 100<100 200>
LayerCount: 2
Fore
SplineSet
50 0 m 1
 50 100 l 1
 200 100 l 1
 200 200 l 1
 200 200 200 300 300 300 c 2
 350 300 l 1
 50 570 l 1
 50 600 l 1
 150 600 l 1
 450 330 l 1
 450 200 l 1
 300 200 l 1
 300 100 l 1
 300 100 300 0 200 0 c 2
 50 0 l 1
EndSplineSet
EndChar

StartChar: u10477
Encoding: 66679 66679 233
Width: 500
GlyphClass: 1
Flags: W
HStem: 0 100<255.737 450> 200 100<150 350> 500 100<50 350>
VStem: 350 100<300 500>
LayerCount: 2
Fore
SplineSet
450 0 m 1
 350 0 l 2
 150 0 50 200 50 200 c 1
 50 300 l 1
 350 300 l 1
 350 500 l 1
 50 500 l 1
 50 600 l 1
 350 600 l 1
 350 600 450 600 450 500 c 2
 450 300 l 1
 450 300 450 200 350 200 c 2
 150 200 l 1
 150 200 250 100 350 100 c 2
 450 100 l 1
 450 0 l 1
EndSplineSet
EndChar

StartChar: u10478
Encoding: 66680 66680 234
Width: 500
GlyphClass: 1
Flags: W
HStem: 0 100<50 166.016> 200 100<150 200> 500 100<150 350>
VStem: 50 100<300 500> 350 100<100 500>
LayerCount: 2
Fore
SplineSet
50 0 m 1
 50 100 l 1
 100 100 l 2
 200 100 200 200 200 200 c 1
 150 200 l 2
 50.6025390625 200 50 300 50 300 c 1
 50 500 l 2
 50 600 150 600 150 600 c 1
 350 600 l 1
 350 600 450 600 450 500 c 2
 450 100 l 1
 450 100 450 0 350 0 c 1
 350 500 l 1
 150 500 l 1
 150 300 l 1
 300 300 l 1
 300 200 l 1
 300 200 300 0 100 0 c 2
 50 0 l 1
EndSplineSet
EndChar

StartChar: u10479
Encoding: 66681 66681 235
Width: 500
GlyphClass: 1
Flags: W
HStem: 0 100<167.519 350> 200 100<150 200> 500 100<50 200>
VStem: 200 100<300 500> 350 100<100 543.208>
LayerCount: 2
Fore
SplineSet
300 0 m 1
 250 0 l 1
 200 0 l 2
 50 0 50 200 50 200 c 1
 50 300 l 1
 200 300 l 1
 200 500 l 1
 50 500 l 1
 50 600 l 1
 200 600 l 1
 200 600 300 600 300 500 c 2
 300 300 l 1
 300 300 300 200 200 200 c 2
 150 200 l 1
 150 200 150 100 200 100 c 2
 250 100 l 1
 300 100 l 1
 350 100 l 1
 350 600 l 1
 350 600 450 600 450 500 c 2
 450 100 l 1
 450 100 450 0 350 0 c 2
 300 0 l 1
EndSplineSet
EndChar

StartChar: u1047A
Encoding: 66682 66682 236
Width: 500
GlyphClass: 1
Flags: W
HStem: 0 21G<50 150 350 450> 500 100<275 350>
VStem: 50 100<0 200> 175 100<300 500> 350 100<0 500>
LayerCount: 2
Fore
SplineSet
350 600 m 2
 450 600 450 500 450 500 c 1
 450 0 l 1
 350 0 l 1
 350 500 l 1
 275 500 l 1
 275 200 l 1
 150 200 l 1
 150 0 l 1
 50 0 l 1
 50 200 l 2
 50 300 150 300 150 300 c 1
 175 300 l 1
 175 500 l 1
 175 500 175 600 275 600 c 2
 350 600 l 2
EndSplineSet
EndChar

StartChar: u1047B
Encoding: 66683 66683 237
Width: 500
GlyphClass: 1
Flags: W
HStem: 0 100<275 350> 580 20G<50 150 350 450>
VStem: 50 100<300 600> 175 100<100 200> 350 100<100 600>
LayerCount: 2
Fore
SplineSet
350 0 m 2
 275 0 l 2
 175 0 175 100 175 100 c 1
 175 200 l 1
 150 200 l 1
 150 200 50 200 50 300 c 2
 50 600 l 1
 150 600 l 1
 150 300 l 1
 275 300 l 1
 275 100 l 1
 350 100 l 1
 350 600 l 1
 450 600 l 1
 450 100 l 1
 450 100 450 0 350 0 c 2
EndSplineSet
EndChar

StartChar: u1047C
Encoding: 66684 66684 238
Width: 500
GlyphClass: 1
Flags: W
HStem: 0 100<250 350> 500 100<150 350>
VStem: 50 100<0 500> 350 100<100 500>
LayerCount: 2
Fore
SplineSet
350 600 m 1
 350 600 450 600 450 500 c 2
 450 100 l 1
 450 100 450 0 350 0 c 2
 250 0 l 1
 250 100 l 1
 350 100 l 1
 350 500 l 1
 150 500 l 1
 150 0 l 1
 50 0 l 1
 50 500 l 1
 50 500 50 600 150 600 c 2
 350 600 l 1
EndSplineSet
EndChar

StartChar: u1047D
Encoding: 66685 66685 239
Width: 500
GlyphClass: 1
Flags: W
HStem: 0 100<250 350> 580 20G<50 150 286.5 350>
VStem: 50 100<0.0728199 299.671 432 600> 350 100<100 500>
LayerCount: 2
Fore
SplineSet
150 0 m 1
 50 0 l 1
 50 600 l 1
 150 600 l 1
 150 432 l 1
 150 432 223 600 350 600 c 1
 350 600 450 600 450 500 c 2
 450 100 l 1
 450 100 450 0 350 0 c 2
 250 0 l 1
 250 100 l 1
 350 100 l 1
 350 500 l 1
 350 500 153.375976562 357 150 200 c 0
 147.848632812 99.943359375 150 0 150 0 c 1
EndSplineSet
EndChar

StartChar: u1047E
Encoding: 66686 66686 240
Width: 500
GlyphClass: 1
Flags: W
HStem: 0 21G<50 150> 500 100<350 450>
VStem: 50 100<0 404.633 500 600>
LayerCount: 2
Fore
SplineSet
150 0 m 1
 50 0 l 1
 50 600 l 1
 150 600 l 1
 150 500 l 1
 150 500 150 600 350 600 c 2
 450 600 l 1
 450 500 l 1
 350 500 l 1
 350 500 150 500 150 300 c 2
 150 0 l 1
EndSplineSet
EndChar

StartChar: u1047F
Encoding: 66687 66687 241
Width: 500
GlyphClass: 1
Flags: W
HStem: 0 21G<108.8 214.889 348.667 450> 580 20G<245.333 401.667> 980 20G<50 151.2>
LayerCount: 2
Fore
SplineSet
50 1000 m 1
 150 1000 l 1
 189.545898438 340.909179688 l 1
 250 600 l 1
 400 600 l 1
 450 0 l 1
 350 0 l 1
 320 450 l 1
 210 0 l 1
 110 0 l 1
 50 1000 l 1
EndSplineSet
EndChar

StartChar: guilsinglleft
Encoding: 8249 8249 242
Width: 500
Flags: W
VStem: 90 320
LayerCount: 2
Fore
SplineSet
290 300 m 1
 90 501 l 1
 290 700 l 1
 410 699 l 1
 210 500 l 1
 410 299 l 1
 290 300 l 1
EndSplineSet
EndChar

StartChar: guilsinglright
Encoding: 8250 8250 243
Width: 500
Flags: W
VStem: 90 320
LayerCount: 2
Fore
SplineSet
210 300 m 1
 90 299 l 1
 290 500 l 1
 90 699 l 1
 210 700 l 1
 410 501 l 1
 210 300 l 1
EndSplineSet
EndChar

StartChar: uni203D
Encoding: 8253 8253 244
Width: 500
Flags: W
HStem: 0 100<150 250> 501 99<250 350> 900 100<50 350>
VStem: 150 100<0 100 300 501 600 800> 350 100<600 900>
LayerCount: 2
Fore
SplineSet
50 900 m 1
 50 1000 l 1
 350 1000 l 2
 450 1000 450 900 450 900 c 1
 450 600 l 2
 450 500 350 500 350 500 c 1
 250 501 l 1
 250 300 l 1
 150 300 l 1
 150 800 l 1
 250 800 l 1
 250 600 l 1
 350 600 l 1
 350 900 l 1
 50 900 l 1
150 0 m 1
 150 100 l 1
 250 100 l 1
 250 0 l 1
 150 0 l 1
EndSplineSet
EndChar

StartChar: oe
Encoding: 339 339 245
Width: 500
Flags: HMW
LayerCount: 2
Fore
SplineSet
150 0 m 1
 150 0 50 0 50 100 c 2
 50 500 l 1
 50 500 51.3095703125 600 150 600 c 2
 200 600 l 2
 200.493164062 600 224.34765625 599.856445312 247.368164062 586.13671875 c 0
 247.84765625 586.39453125 273.461914062 599.999023438 300 600 c 2
 350 600 l 2
 450 600 450 500 450 500 c 1
 450 400 l 2
 450 300 350 300 350 300 c 1
 290 300 l 1
 290 100 l 1
 450 100 l 1
 450 0 l 1
 300 0 l 2
 283.771484375 0 265.823242188 2.6318359375 249.434570312 11.30859375 c 1
 234.99609375 3.2373046875 217.984375 0 200 0 c 2
 150 0 l 1
200 500 m 1
 140 500 l 1
 140 100 l 1
 200 100 l 1
 200 500 l 1
290 500 m 1
 290 400 l 1
 355 400 l 1
 355 500 l 1
 290 500 l 1
EndSplineSet
EndChar

StartChar: OE
Encoding: 338 338 246
Width: 500
Flags: HMW
LayerCount: 2
Fore
SplineSet
140 0 m 1
 140 0 50 0 50 100 c 2
 50 900 l 1
 50 900 50 1000 140 1000 c 0
 450 1000 l 1
 450 900 l 1
 300 900 l 1
 300 600 l 1
 450 600 l 1
 450 500 l 1
 300 500 l 1
 300 100 l 1
 450 100 l 1
 450 0 l 1
 140 0 l 1
210 900 m 1
 140 900 l 1
 140 100 l 1
 210 100 l 1
 210 900 l 1
EndSplineSet
EndChar

StartChar: dotlessi
Encoding: 305 305 247
Width: 500
Flags: W
HStem: 0 100<50 200 300 450> 500 100<50 200>
VStem: 200 100<100 500>
LayerCount: 2
Fore
SplineSet
50 0 m 1
 50 100 l 1
 200 100 l 1
 200 500 l 1
 50 500 l 1
 50 600 l 1
 300 600 l 1
 300 100 l 1
 450 100 l 1
 450 0 l 1
 50 0 l 1
EndSplineSet
EndChar

StartChar: pi
Encoding: 960 960 248
Width: 500
Flags: W
HStem: 0 100<400 450> 500 100<50 100 200 300 400 450>
VStem: 100 100<0 500>
LayerCount: 2
Fore
SplineSet
50 500 m 1
 50 600 l 1
 450 600 l 1
 450 500 l 1
 400 500 l 1
 400 100 l 1
 450 100 l 1
 450 0 l 1
 400 0 l 1
 400 0 300 -0.0048828125 300 100 c 0
 300 200.125 300 500 300 500 c 1
 200 500 l 1
 200 0 l 1
 100 0 l 1
 100 500 l 1
 50 500 l 1
EndSplineSet
EndChar
